<svg width="23" height="22" viewBox="0 0 23 22" fill="none" xmlns="http://www.w3.org/2000/svg">
<path d="M0.666748 21C0.666748 21.54 1.11675 22 1.66675 22H14.6667C15.2267 22 15.6667 21.54 15.6667 21V20H0.666748V21ZM8.16675 8C4.41675 8 0.666748 10 0.666748 14H15.6667C15.6667 10 11.9167 8 8.16675 8ZM3.28675 12C4.39675 10.45 6.75675 10 8.16675 10C9.57675 10 11.9367 10.45 13.0467 12H3.28675ZM0.666748 16H15.6667V18H0.666748V16ZM17.6667 4V0H15.6667V4H10.6667L10.8967 6H20.4567L19.0567 20H17.6667V22H19.3867C20.2267 22 20.9167 21.35 21.0167 20.53L22.6667 4H17.6667Z" fill="#333333"/>
<path d="M0.666748 21C0.666748 21.54 1.11675 22 1.66675 22H14.6667C15.2267 22 15.6667 21.54 15.6667 21V20H0.666748V21ZM8.16675 8C4.41675 8 0.666748 10 0.666748 14H15.6667C15.6667 10 11.9167 8 8.16675 8ZM3.28675 12C4.39675 10.45 6.75675 10 8.16675 10C9.57675 10 11.9367 10.45 13.0467 12H3.28675ZM0.666748 16H15.6667V18H0.666748V16ZM17.6667 4V0H15.6667V4H10.6667L10.8967 6H20.4567L19.0567 20H17.6667V22H19.3867C20.2267 22 20.9167 21.35 21.0167 20.53L22.6667 4H17.6667Z" fill="black" fill-opacity="0.2"/>
<path d="M0.666748 21C0.666748 21.54 1.11675 22 1.66675 22H14.6667C15.2267 22 15.6667 21.54 15.6667 21V20H0.666748V21ZM8.16675 8C4.41675 8 0.666748 10 0.666748 14H15.6667C15.6667 10 11.9167 8 8.16675 8ZM3.28675 12C4.39675 10.45 6.75675 10 8.16675 10C9.57675 10 11.9367 10.45 13.0467 12H3.28675ZM0.666748 16H15.6667V18H0.666748V16ZM17.6667 4V0H15.6667V4H10.6667L10.8967 6H20.4567L19.0567 20H17.6667V22H19.3867C20.2267 22 20.9167 21.35 21.0167 20.53L22.6667 4H17.6667Z" fill="black" fill-opacity="0.2"/>
<path d="M0.666748 21C0.666748 21.54 1.11675 22 1.66675 22H14.6667C15.2267 22 15.6667 21.54 15.6667 21V20H0.666748V21ZM8.16675 8C4.41675 8 0.666748 10 0.666748 14H15.6667C15.6667 10 11.9167 8 8.16675 8ZM3.28675 12C4.39675 10.45 6.75675 10 8.16675 10C9.57675 10 11.9367 10.45 13.0467 12H3.28675ZM0.666748 16H15.6667V18H0.666748V16ZM17.6667 4V0H15.6667V4H10.6667L10.8967 6H20.4567L19.0567 20H17.6667V22H19.3867C20.2267 22 20.9167 21.35 21.0167 20.53L22.6667 4H17.6667Z" fill="black" fill-opacity="0.2"/>
<path d="M0.666748 21C0.666748 21.54 1.11675 22 1.66675 22H14.6667C15.2267 22 15.6667 21.54 15.6667 21V20H0.666748V21ZM8.16675 8C4.41675 8 0.666748 10 0.666748 14H15.6667C15.6667 10 11.9167 8 8.16675 8ZM3.28675 12C4.39675 10.45 6.75675 10 8.16675 10C9.57675 10 11.9367 10.45 13.0467 12H3.28675ZM0.666748 16H15.6667V18H0.666748V16ZM17.6667 4V0H15.6667V4H10.6667L10.8967 6H20.4567L19.0567 20H17.6667V22H19.3867C20.2267 22 20.9167 21.35 21.0167 20.53L22.6667 4H17.6667Z" fill="black" fill-opacity="0.2"/>
<path d="M0.666748 21C0.666748 21.54 1.11675 22 1.66675 22H14.6667C15.2267 22 15.6667 21.54 15.6667 21V20H0.666748V21ZM8.16675 8C4.41675 8 0.666748 10 0.666748 14H15.6667C15.6667 10 11.9167 8 8.16675 8ZM3.28675 12C4.39675 10.45 6.75675 10 8.16675 10C9.57675 10 11.9367 10.45 13.0467 12H3.28675ZM0.666748 16H15.6667V18H0.666748V16ZM17.6667 4V0H15.6667V4H10.6667L10.8967 6H20.4567L19.0567 20H17.6667V22H19.3867C20.2267 22 20.9167 21.35 21.0167 20.53L22.6667 4H17.6667Z" fill="black" fill-opacity="0.2"/>
<path d="M0.666748 21C0.666748 21.54 1.11675 22 1.66675 22H14.6667C15.2267 22 15.6667 21.54 15.6667 21V20H0.666748V21ZM8.16675 8C4.41675 8 0.666748 10 0.666748 14H15.6667C15.6667 10 11.9167 8 8.16675 8ZM3.28675 12C4.39675 10.45 6.75675 10 8.16675 10C9.57675 10 11.9367 10.45 13.0467 12H3.28675ZM0.666748 16H15.6667V18H0.666748V16ZM17.6667 4V0H15.6667V4H10.6667L10.8967 6H20.4567L19.0567 20H17.6667V22H19.3867C20.2267 22 20.9167 21.35 21.0167 20.53L22.6667 4H17.6667Z" fill="black" fill-opacity="0.2"/>
</svg>
