<svg width="18" height="18" viewBox="0 0 18 18" fill="none" xmlns="http://www.w3.org/2000/svg">
<path d="M12.6333 10.6667C12.7 10.1167 12.75 9.56667 12.75 9.00001C12.75 8.43334 12.7 7.88334 12.6333 7.33334H15.45C15.5833 7.86667 15.6666 8.42501 15.6666 9.00001C15.6666 9.57501 15.5833 10.1333 15.45 10.6667M11.1583 15.3C11.6583 14.375 12.0416 13.375 12.3083 12.3333H14.7666C13.9666 13.7083 12.6916 14.775 11.1583 15.3ZM10.95 10.6667H7.04996C6.96663 10.1167 6.91663 9.56667 6.91663 9.00001C6.91663 8.43334 6.96663 7.87501 7.04996 7.33334H10.95C11.025 7.87501 11.0833 8.43334 11.0833 9.00001C11.0833 9.56667 11.025 10.1167 10.95 10.6667ZM8.99996 15.6333C8.30829 14.6333 7.74996 13.525 7.40829 12.3333H10.5916C10.25 13.525 9.69163 14.6333 8.99996 15.6333ZM5.66663 5.66667H3.23329C4.02496 4.28334 5.30829 3.21667 6.83329 2.70001C6.33329 3.62501 5.95829 4.62501 5.66663 5.66667ZM3.23329 12.3333H5.66663C5.95829 13.375 6.33329 14.375 6.83329 15.3C5.30829 14.775 4.02496 13.7083 3.23329 12.3333ZM2.54996 10.6667C2.41663 10.1333 2.33329 9.57501 2.33329 9.00001C2.33329 8.42501 2.41663 7.86667 2.54996 7.33334H5.36663C5.29996 7.88334 5.24996 8.43334 5.24996 9.00001C5.24996 9.56667 5.29996 10.1167 5.36663 10.6667M8.99996 2.35834C9.69163 3.35834 10.25 4.47501 10.5916 5.66667H7.40829C7.74996 4.47501 8.30829 3.35834 8.99996 2.35834ZM14.7666 5.66667H12.3083C12.0416 4.62501 11.6583 3.62501 11.1583 2.70001C12.6916 3.22501 13.9666 4.28334 14.7666 5.66667ZM8.99996 0.666672C4.39163 0.666672 0.666626 4.41667 0.666626 9.00001C0.666626 11.2101 1.5446 13.3298 3.1074 14.8926C3.88122 15.6664 4.79988 16.2802 5.81093 16.699C6.82198 17.1178 7.90561 17.3333 8.99996 17.3333C11.2101 17.3333 13.3297 16.4554 14.8925 14.8926C16.4553 13.3298 17.3333 11.2101 17.3333 9.00001C17.3333 7.90566 17.1177 6.82202 16.699 5.81098C16.2802 4.79993 15.6663 3.88127 14.8925 3.10745C14.1187 2.33363 13.2 1.7198 12.189 1.30101C11.1779 0.88222 10.0943 0.666672 8.99996 0.666672Z" fill="#333333"/>
<path d="M12.6333 10.6667C12.7 10.1167 12.75 9.56667 12.75 9.00001C12.75 8.43334 12.7 7.88334 12.6333 7.33334H15.45C15.5833 7.86667 15.6666 8.42501 15.6666 9.00001C15.6666 9.57501 15.5833 10.1333 15.45 10.6667M11.1583 15.3C11.6583 14.375 12.0416 13.375 12.3083 12.3333H14.7666C13.9666 13.7083 12.6916 14.775 11.1583 15.3ZM10.95 10.6667H7.04996C6.96663 10.1167 6.91663 9.56667 6.91663 9.00001C6.91663 8.43334 6.96663 7.87501 7.04996 7.33334H10.95C11.025 7.87501 11.0833 8.43334 11.0833 9.00001C11.0833 9.56667 11.025 10.1167 10.95 10.6667ZM8.99996 15.6333C8.30829 14.6333 7.74996 13.525 7.40829 12.3333H10.5916C10.25 13.525 9.69163 14.6333 8.99996 15.6333ZM5.66663 5.66667H3.23329C4.02496 4.28334 5.30829 3.21667 6.83329 2.70001C6.33329 3.62501 5.95829 4.62501 5.66663 5.66667ZM3.23329 12.3333H5.66663C5.95829 13.375 6.33329 14.375 6.83329 15.3C5.30829 14.775 4.02496 13.7083 3.23329 12.3333ZM2.54996 10.6667C2.41663 10.1333 2.33329 9.57501 2.33329 9.00001C2.33329 8.42501 2.41663 7.86667 2.54996 7.33334H5.36663C5.29996 7.88334 5.24996 8.43334 5.24996 9.00001C5.24996 9.56667 5.29996 10.1167 5.36663 10.6667M8.99996 2.35834C9.69163 3.35834 10.25 4.47501 10.5916 5.66667H7.40829C7.74996 4.47501 8.30829 3.35834 8.99996 2.35834ZM14.7666 5.66667H12.3083C12.0416 4.62501 11.6583 3.62501 11.1583 2.70001C12.6916 3.22501 13.9666 4.28334 14.7666 5.66667ZM8.99996 0.666672C4.39163 0.666672 0.666626 4.41667 0.666626 9.00001C0.666626 11.2101 1.5446 13.3298 3.1074 14.8926C3.88122 15.6664 4.79988 16.2802 5.81093 16.699C6.82198 17.1178 7.90561 17.3333 8.99996 17.3333C11.2101 17.3333 13.3297 16.4554 14.8925 14.8926C16.4553 13.3298 17.3333 11.2101 17.3333 9.00001C17.3333 7.90566 17.1177 6.82202 16.699 5.81098C16.2802 4.79993 15.6663 3.88127 14.8925 3.10745C14.1187 2.33363 13.2 1.7198 12.189 1.30101C11.1779 0.88222 10.0943 0.666672 8.99996 0.666672Z" fill="black" fill-opacity="0.2"/>
<path d="M12.6333 10.6667C12.7 10.1167 12.75 9.56667 12.75 9.00001C12.75 8.43334 12.7 7.88334 12.6333 7.33334H15.45C15.5833 7.86667 15.6666 8.42501 15.6666 9.00001C15.6666 9.57501 15.5833 10.1333 15.45 10.6667M11.1583 15.3C11.6583 14.375 12.0416 13.375 12.3083 12.3333H14.7666C13.9666 13.7083 12.6916 14.775 11.1583 15.3ZM10.95 10.6667H7.04996C6.96663 10.1167 6.91663 9.56667 6.91663 9.00001C6.91663 8.43334 6.96663 7.87501 7.04996 7.33334H10.95C11.025 7.87501 11.0833 8.43334 11.0833 9.00001C11.0833 9.56667 11.025 10.1167 10.95 10.6667ZM8.99996 15.6333C8.30829 14.6333 7.74996 13.525 7.40829 12.3333H10.5916C10.25 13.525 9.69163 14.6333 8.99996 15.6333ZM5.66663 5.66667H3.23329C4.02496 4.28334 5.30829 3.21667 6.83329 2.70001C6.33329 3.62501 5.95829 4.62501 5.66663 5.66667ZM3.23329 12.3333H5.66663C5.95829 13.375 6.33329 14.375 6.83329 15.3C5.30829 14.775 4.02496 13.7083 3.23329 12.3333ZM2.54996 10.6667C2.41663 10.1333 2.33329 9.57501 2.33329 9.00001C2.33329 8.42501 2.41663 7.86667 2.54996 7.33334H5.36663C5.29996 7.88334 5.24996 8.43334 5.24996 9.00001C5.24996 9.56667 5.29996 10.1167 5.36663 10.6667M8.99996 2.35834C9.69163 3.35834 10.25 4.47501 10.5916 5.66667H7.40829C7.74996 4.47501 8.30829 3.35834 8.99996 2.35834ZM14.7666 5.66667H12.3083C12.0416 4.62501 11.6583 3.62501 11.1583 2.70001C12.6916 3.22501 13.9666 4.28334 14.7666 5.66667ZM8.99996 0.666672C4.39163 0.666672 0.666626 4.41667 0.666626 9.00001C0.666626 11.2101 1.5446 13.3298 3.1074 14.8926C3.88122 15.6664 4.79988 16.2802 5.81093 16.699C6.82198 17.1178 7.90561 17.3333 8.99996 17.3333C11.2101 17.3333 13.3297 16.4554 14.8925 14.8926C16.4553 13.3298 17.3333 11.2101 17.3333 9.00001C17.3333 7.90566 17.1177 6.82202 16.699 5.81098C16.2802 4.79993 15.6663 3.88127 14.8925 3.10745C14.1187 2.33363 13.2 1.7198 12.189 1.30101C11.1779 0.88222 10.0943 0.666672 8.99996 0.666672Z" fill="black" fill-opacity="0.2"/>
<path d="M12.6333 10.6667C12.7 10.1167 12.75 9.56667 12.75 9.00001C12.75 8.43334 12.7 7.88334 12.6333 7.33334H15.45C15.5833 7.86667 15.6666 8.42501 15.6666 9.00001C15.6666 9.57501 15.5833 10.1333 15.45 10.6667M11.1583 15.3C11.6583 14.375 12.0416 13.375 12.3083 12.3333H14.7666C13.9666 13.7083 12.6916 14.775 11.1583 15.3ZM10.95 10.6667H7.04996C6.96663 10.1167 6.91663 9.56667 6.91663 9.00001C6.91663 8.43334 6.96663 7.87501 7.04996 7.33334H10.95C11.025 7.87501 11.0833 8.43334 11.0833 9.00001C11.0833 9.56667 11.025 10.1167 10.95 10.6667ZM8.99996 15.6333C8.30829 14.6333 7.74996 13.525 7.40829 12.3333H10.5916C10.25 13.525 9.69163 14.6333 8.99996 15.6333ZM5.66663 5.66667H3.23329C4.02496 4.28334 5.30829 3.21667 6.83329 2.70001C6.33329 3.62501 5.95829 4.62501 5.66663 5.66667ZM3.23329 12.3333H5.66663C5.95829 13.375 6.33329 14.375 6.83329 15.3C5.30829 14.775 4.02496 13.7083 3.23329 12.3333ZM2.54996 10.6667C2.41663 10.1333 2.33329 9.57501 2.33329 9.00001C2.33329 8.42501 2.41663 7.86667 2.54996 7.33334H5.36663C5.29996 7.88334 5.24996 8.43334 5.24996 9.00001C5.24996 9.56667 5.29996 10.1167 5.36663 10.6667M8.99996 2.35834C9.69163 3.35834 10.25 4.47501 10.5916 5.66667H7.40829C7.74996 4.47501 8.30829 3.35834 8.99996 2.35834ZM14.7666 5.66667H12.3083C12.0416 4.62501 11.6583 3.62501 11.1583 2.70001C12.6916 3.22501 13.9666 4.28334 14.7666 5.66667ZM8.99996 0.666672C4.39163 0.666672 0.666626 4.41667 0.666626 9.00001C0.666626 11.2101 1.5446 13.3298 3.1074 14.8926C3.88122 15.6664 4.79988 16.2802 5.81093 16.699C6.82198 17.1178 7.90561 17.3333 8.99996 17.3333C11.2101 17.3333 13.3297 16.4554 14.8925 14.8926C16.4553 13.3298 17.3333 11.2101 17.3333 9.00001C17.3333 7.90566 17.1177 6.82202 16.699 5.81098C16.2802 4.79993 15.6663 3.88127 14.8925 3.10745C14.1187 2.33363 13.2 1.7198 12.189 1.30101C11.1779 0.88222 10.0943 0.666672 8.99996 0.666672Z" fill="black" fill-opacity="0.2"/>
<path d="M12.6333 10.6667C12.7 10.1167 12.75 9.56667 12.75 9.00001C12.75 8.43334 12.7 7.88334 12.6333 7.33334H15.45C15.5833 7.86667 15.6666 8.42501 15.6666 9.00001C15.6666 9.57501 15.5833 10.1333 15.45 10.6667M11.1583 15.3C11.6583 14.375 12.0416 13.375 12.3083 12.3333H14.7666C13.9666 13.7083 12.6916 14.775 11.1583 15.3ZM10.95 10.6667H7.04996C6.96663 10.1167 6.91663 9.56667 6.91663 9.00001C6.91663 8.43334 6.96663 7.87501 7.04996 7.33334H10.95C11.025 7.87501 11.0833 8.43334 11.0833 9.00001C11.0833 9.56667 11.025 10.1167 10.95 10.6667ZM8.99996 15.6333C8.30829 14.6333 7.74996 13.525 7.40829 12.3333H10.5916C10.25 13.525 9.69163 14.6333 8.99996 15.6333ZM5.66663 5.66667H3.23329C4.02496 4.28334 5.30829 3.21667 6.83329 2.70001C6.33329 3.62501 5.95829 4.62501 5.66663 5.66667ZM3.23329 12.3333H5.66663C5.95829 13.375 6.33329 14.375 6.83329 15.3C5.30829 14.775 4.02496 13.7083 3.23329 12.3333ZM2.54996 10.6667C2.41663 10.1333 2.33329 9.57501 2.33329 9.00001C2.33329 8.42501 2.41663 7.86667 2.54996 7.33334H5.36663C5.29996 7.88334 5.24996 8.43334 5.24996 9.00001C5.24996 9.56667 5.29996 10.1167 5.36663 10.6667M8.99996 2.35834C9.69163 3.35834 10.25 4.47501 10.5916 5.66667H7.40829C7.74996 4.47501 8.30829 3.35834 8.99996 2.35834ZM14.7666 5.66667H12.3083C12.0416 4.62501 11.6583 3.62501 11.1583 2.70001C12.6916 3.22501 13.9666 4.28334 14.7666 5.66667ZM8.99996 0.666672C4.39163 0.666672 0.666626 4.41667 0.666626 9.00001C0.666626 11.2101 1.5446 13.3298 3.1074 14.8926C3.88122 15.6664 4.79988 16.2802 5.81093 16.699C6.82198 17.1178 7.90561 17.3333 8.99996 17.3333C11.2101 17.3333 13.3297 16.4554 14.8925 14.8926C16.4553 13.3298 17.3333 11.2101 17.3333 9.00001C17.3333 7.90566 17.1177 6.82202 16.699 5.81098C16.2802 4.79993 15.6663 3.88127 14.8925 3.10745C14.1187 2.33363 13.2 1.7198 12.189 1.30101C11.1779 0.88222 10.0943 0.666672 8.99996 0.666672Z" fill="black" fill-opacity="0.2"/>
<path d="M12.6333 10.6667C12.7 10.1167 12.75 9.56667 12.75 9.00001C12.75 8.43334 12.7 7.88334 12.6333 7.33334H15.45C15.5833 7.86667 15.6666 8.42501 15.6666 9.00001C15.6666 9.57501 15.5833 10.1333 15.45 10.6667M11.1583 15.3C11.6583 14.375 12.0416 13.375 12.3083 12.3333H14.7666C13.9666 13.7083 12.6916 14.775 11.1583 15.3ZM10.95 10.6667H7.04996C6.96663 10.1167 6.91663 9.56667 6.91663 9.00001C6.91663 8.43334 6.96663 7.87501 7.04996 7.33334H10.95C11.025 7.87501 11.0833 8.43334 11.0833 9.00001C11.0833 9.56667 11.025 10.1167 10.95 10.6667ZM8.99996 15.6333C8.30829 14.6333 7.74996 13.525 7.40829 12.3333H10.5916C10.25 13.525 9.69163 14.6333 8.99996 15.6333ZM5.66663 5.66667H3.23329C4.02496 4.28334 5.30829 3.21667 6.83329 2.70001C6.33329 3.62501 5.95829 4.62501 5.66663 5.66667ZM3.23329 12.3333H5.66663C5.95829 13.375 6.33329 14.375 6.83329 15.3C5.30829 14.775 4.02496 13.7083 3.23329 12.3333ZM2.54996 10.6667C2.41663 10.1333 2.33329 9.57501 2.33329 9.00001C2.33329 8.42501 2.41663 7.86667 2.54996 7.33334H5.36663C5.29996 7.88334 5.24996 8.43334 5.24996 9.00001C5.24996 9.56667 5.29996 10.1167 5.36663 10.6667M8.99996 2.35834C9.69163 3.35834 10.25 4.47501 10.5916 5.66667H7.40829C7.74996 4.47501 8.30829 3.35834 8.99996 2.35834ZM14.7666 5.66667H12.3083C12.0416 4.62501 11.6583 3.62501 11.1583 2.70001C12.6916 3.22501 13.9666 4.28334 14.7666 5.66667ZM8.99996 0.666672C4.39163 0.666672 0.666626 4.41667 0.666626 9.00001C0.666626 11.2101 1.5446 13.3298 3.1074 14.8926C3.88122 15.6664 4.79988 16.2802 5.81093 16.699C6.82198 17.1178 7.90561 17.3333 8.99996 17.3333C11.2101 17.3333 13.3297 16.4554 14.8925 14.8926C16.4553 13.3298 17.3333 11.2101 17.3333 9.00001C17.3333 7.90566 17.1177 6.82202 16.699 5.81098C16.2802 4.79993 15.6663 3.88127 14.8925 3.10745C14.1187 2.33363 13.2 1.7198 12.189 1.30101C11.1779 0.88222 10.0943 0.666672 8.99996 0.666672Z" fill="black" fill-opacity="0.2"/>
<path d="M12.6333 10.6667C12.7 10.1167 12.75 9.56667 12.75 9.00001C12.75 8.43334 12.7 7.88334 12.6333 7.33334H15.45C15.5833 7.86667 15.6666 8.42501 15.6666 9.00001C15.6666 9.57501 15.5833 10.1333 15.45 10.6667M11.1583 15.3C11.6583 14.375 12.0416 13.375 12.3083 12.3333H14.7666C13.9666 13.7083 12.6916 14.775 11.1583 15.3ZM10.95 10.6667H7.04996C6.96663 10.1167 6.91663 9.56667 6.91663 9.00001C6.91663 8.43334 6.96663 7.87501 7.04996 7.33334H10.95C11.025 7.87501 11.0833 8.43334 11.0833 9.00001C11.0833 9.56667 11.025 10.1167 10.95 10.6667ZM8.99996 15.6333C8.30829 14.6333 7.74996 13.525 7.40829 12.3333H10.5916C10.25 13.525 9.69163 14.6333 8.99996 15.6333ZM5.66663 5.66667H3.23329C4.02496 4.28334 5.30829 3.21667 6.83329 2.70001C6.33329 3.62501 5.95829 4.62501 5.66663 5.66667ZM3.23329 12.3333H5.66663C5.95829 13.375 6.33329 14.375 6.83329 15.3C5.30829 14.775 4.02496 13.7083 3.23329 12.3333ZM2.54996 10.6667C2.41663 10.1333 2.33329 9.57501 2.33329 9.00001C2.33329 8.42501 2.41663 7.86667 2.54996 7.33334H5.36663C5.29996 7.88334 5.24996 8.43334 5.24996 9.00001C5.24996 9.56667 5.29996 10.1167 5.36663 10.6667M8.99996 2.35834C9.69163 3.35834 10.25 4.47501 10.5916 5.66667H7.40829C7.74996 4.47501 8.30829 3.35834 8.99996 2.35834ZM14.7666 5.66667H12.3083C12.0416 4.62501 11.6583 3.62501 11.1583 2.70001C12.6916 3.22501 13.9666 4.28334 14.7666 5.66667ZM8.99996 0.666672C4.39163 0.666672 0.666626 4.41667 0.666626 9.00001C0.666626 11.2101 1.5446 13.3298 3.1074 14.8926C3.88122 15.6664 4.79988 16.2802 5.81093 16.699C6.82198 17.1178 7.90561 17.3333 8.99996 17.3333C11.2101 17.3333 13.3297 16.4554 14.8925 14.8926C16.4553 13.3298 17.3333 11.2101 17.3333 9.00001C17.3333 7.90566 17.1177 6.82202 16.699 5.81098C16.2802 4.79993 15.6663 3.88127 14.8925 3.10745C14.1187 2.33363 13.2 1.7198 12.189 1.30101C11.1779 0.88222 10.0943 0.666672 8.99996 0.666672Z" fill="black" fill-opacity="0.2"/>
</svg>
