<svg width="12" height="12" viewBox="0 0 12 12" fill="none" xmlns="http://www.w3.org/2000/svg">
<path d="M10.5876 10.4904H1.55758V1.46041H10.5876M10.5876 0.17041H1.55758C1.21545 0.17041 0.887332 0.30632 0.64541 0.548242C0.403488 0.790164 0.267578 1.11828 0.267578 1.46041V10.4904C0.267578 10.8325 0.403488 11.1607 0.64541 11.4026C0.887332 11.6445 1.21545 11.7804 1.55758 11.7804H10.5876C10.9297 11.7804 11.2578 11.6445 11.4997 11.4026C11.7417 11.1607 11.8776 10.8325 11.8776 10.4904V1.46041C11.8776 1.11828 11.7417 0.790164 11.4997 0.548242C11.2578 0.30632 10.9297 0.17041 10.5876 0.17041ZM5.42758 7.91041H6.71758V9.20041H5.42758V7.91041ZM5.42758 2.75041H6.71758V6.62041H5.42758V2.75041Z" fill="white"/>
</svg>
