<svg width="14" height="18" viewBox="0 0 14 18" fill="none" xmlns="http://www.w3.org/2000/svg">
<path d="M7.00065 10.6667C7.45898 10.6667 7.85148 10.5034 8.17815 10.1767C8.50482 9.85008 8.66787 9.45786 8.66732 9.00008C8.66732 8.54175 8.50398 8.14925 8.17732 7.82258C7.85065 7.49591 7.45843 7.33286 7.00065 7.33342C6.54232 7.33342 6.14982 7.49675 5.82315 7.82342C5.49648 8.15008 5.33343 8.5423 5.33398 9.00008C5.33398 9.45842 5.49732 9.85091 5.82398 10.1776C6.15065 10.5042 6.54287 10.6673 7.00065 10.6667ZM3.66732 14.0001H10.334V13.5209C10.334 13.1876 10.2437 12.882 10.0632 12.6042C9.8826 12.3265 9.6326 12.1181 9.31315 11.9792C8.95204 11.8265 8.57704 11.7084 8.18815 11.6251C7.79926 11.5417 7.40343 11.5001 7.00065 11.5001C6.59787 11.5001 6.20204 11.5417 5.81315 11.6251C5.42426 11.7084 5.04926 11.8265 4.68815 11.9792C4.36871 12.1181 4.11871 12.3265 3.93815 12.6042C3.7576 12.882 3.66732 13.1876 3.66732 13.5209V14.0001ZM13.6673 17.3334H0.333984V0.666748H8.66732L13.6673 5.66675V17.3334ZM12.0007 15.6667V6.37508L7.95898 2.33341H2.00065V15.6667H12.0007Z" fill="#5C5C5C"/>
<path d="M7.00065 10.6667C7.45898 10.6667 7.85148 10.5034 8.17815 10.1767C8.50482 9.85008 8.66787 9.45786 8.66732 9.00008C8.66732 8.54175 8.50398 8.14925 8.17732 7.82258C7.85065 7.49591 7.45843 7.33286 7.00065 7.33342C6.54232 7.33342 6.14982 7.49675 5.82315 7.82342C5.49648 8.15008 5.33343 8.5423 5.33398 9.00008C5.33398 9.45842 5.49732 9.85091 5.82398 10.1776C6.15065 10.5042 6.54287 10.6673 7.00065 10.6667ZM3.66732 14.0001H10.334V13.5209C10.334 13.1876 10.2437 12.882 10.0632 12.6042C9.8826 12.3265 9.6326 12.1181 9.31315 11.9792C8.95204 11.8265 8.57704 11.7084 8.18815 11.6251C7.79926 11.5417 7.40343 11.5001 7.00065 11.5001C6.59787 11.5001 6.20204 11.5417 5.81315 11.6251C5.42426 11.7084 5.04926 11.8265 4.68815 11.9792C4.36871 12.1181 4.11871 12.3265 3.93815 12.6042C3.7576 12.882 3.66732 13.1876 3.66732 13.5209V14.0001ZM13.6673 17.3334H0.333984V0.666748H8.66732L13.6673 5.66675V17.3334ZM12.0007 15.6667V6.37508L7.95898 2.33341H2.00065V15.6667H12.0007Z" fill="black" fill-opacity="0.2"/>
<path d="M7.00065 10.6667C7.45898 10.6667 7.85148 10.5034 8.17815 10.1767C8.50482 9.85008 8.66787 9.45786 8.66732 9.00008C8.66732 8.54175 8.50398 8.14925 8.17732 7.82258C7.85065 7.49591 7.45843 7.33286 7.00065 7.33342C6.54232 7.33342 6.14982 7.49675 5.82315 7.82342C5.49648 8.15008 5.33343 8.5423 5.33398 9.00008C5.33398 9.45842 5.49732 9.85091 5.82398 10.1776C6.15065 10.5042 6.54287 10.6673 7.00065 10.6667ZM3.66732 14.0001H10.334V13.5209C10.334 13.1876 10.2437 12.882 10.0632 12.6042C9.8826 12.3265 9.6326 12.1181 9.31315 11.9792C8.95204 11.8265 8.57704 11.7084 8.18815 11.6251C7.79926 11.5417 7.40343 11.5001 7.00065 11.5001C6.59787 11.5001 6.20204 11.5417 5.81315 11.6251C5.42426 11.7084 5.04926 11.8265 4.68815 11.9792C4.36871 12.1181 4.11871 12.3265 3.93815 12.6042C3.7576 12.882 3.66732 13.1876 3.66732 13.5209V14.0001ZM13.6673 17.3334H0.333984V0.666748H8.66732L13.6673 5.66675V17.3334ZM12.0007 15.6667V6.37508L7.95898 2.33341H2.00065V15.6667H12.0007Z" fill="black" fill-opacity="0.2"/>
<path d="M7.00065 10.6667C7.45898 10.6667 7.85148 10.5034 8.17815 10.1767C8.50482 9.85008 8.66787 9.45786 8.66732 9.00008C8.66732 8.54175 8.50398 8.14925 8.17732 7.82258C7.85065 7.49591 7.45843 7.33286 7.00065 7.33342C6.54232 7.33342 6.14982 7.49675 5.82315 7.82342C5.49648 8.15008 5.33343 8.5423 5.33398 9.00008C5.33398 9.45842 5.49732 9.85091 5.82398 10.1776C6.15065 10.5042 6.54287 10.6673 7.00065 10.6667ZM3.66732 14.0001H10.334V13.5209C10.334 13.1876 10.2437 12.882 10.0632 12.6042C9.8826 12.3265 9.6326 12.1181 9.31315 11.9792C8.95204 11.8265 8.57704 11.7084 8.18815 11.6251C7.79926 11.5417 7.40343 11.5001 7.00065 11.5001C6.59787 11.5001 6.20204 11.5417 5.81315 11.6251C5.42426 11.7084 5.04926 11.8265 4.68815 11.9792C4.36871 12.1181 4.11871 12.3265 3.93815 12.6042C3.7576 12.882 3.66732 13.1876 3.66732 13.5209V14.0001ZM13.6673 17.3334H0.333984V0.666748H8.66732L13.6673 5.66675V17.3334ZM12.0007 15.6667V6.37508L7.95898 2.33341H2.00065V15.6667H12.0007Z" fill="black" fill-opacity="0.2"/>
<path d="M7.00065 10.6667C7.45898 10.6667 7.85148 10.5034 8.17815 10.1767C8.50482 9.85008 8.66787 9.45786 8.66732 9.00008C8.66732 8.54175 8.50398 8.14925 8.17732 7.82258C7.85065 7.49591 7.45843 7.33286 7.00065 7.33342C6.54232 7.33342 6.14982 7.49675 5.82315 7.82342C5.49648 8.15008 5.33343 8.5423 5.33398 9.00008C5.33398 9.45842 5.49732 9.85091 5.82398 10.1776C6.15065 10.5042 6.54287 10.6673 7.00065 10.6667ZM3.66732 14.0001H10.334V13.5209C10.334 13.1876 10.2437 12.882 10.0632 12.6042C9.8826 12.3265 9.6326 12.1181 9.31315 11.9792C8.95204 11.8265 8.57704 11.7084 8.18815 11.6251C7.79926 11.5417 7.40343 11.5001 7.00065 11.5001C6.59787 11.5001 6.20204 11.5417 5.81315 11.6251C5.42426 11.7084 5.04926 11.8265 4.68815 11.9792C4.36871 12.1181 4.11871 12.3265 3.93815 12.6042C3.7576 12.882 3.66732 13.1876 3.66732 13.5209V14.0001ZM13.6673 17.3334H0.333984V0.666748H8.66732L13.6673 5.66675V17.3334ZM12.0007 15.6667V6.37508L7.95898 2.33341H2.00065V15.6667H12.0007Z" fill="black" fill-opacity="0.2"/>
</svg>
