<svg width="19" height="18" viewBox="0 0 19 18" fill="none" xmlns="http://www.w3.org/2000/svg">
<path d="M13.3334 1.69166C13.925 1.00833 14.675 0.666664 15.5834 0.666664C16.3417 0.666664 16.975 0.941664 17.5 1.5C18.025 2.05833 18.3 2.69166 18.3334 3.41666C18.3334 4 18.0584 4.675 17.5 5.46666C16.9417 6.25833 16.4 6.91666 15.8584 7.45833C15.3167 7.99166 14.475 8.78333 13.3334 9.83333C12.175 8.78333 11.325 7.99166 10.7834 7.45833C10.2417 6.925 9.69171 6.25833 9.14171 5.46666C8.59171 4.675 8.33337 4 8.33337 3.41666C8.33337 2.65833 8.60004 2.025 9.14171 1.5C9.68337 0.974997 10.3334 0.699997 11.0917 0.666664C11.9834 0.666664 12.725 1.00833 13.3334 1.69166ZM18.3334 14.8333V15.6667L11.6667 17.75L5.83337 16.1333V17.3333H0.833374V8.16666H7.47504L12.6084 10.0833C13.5417 10.4333 14.1667 11.3333 14.1667 12.3333H15.8334C17.2167 12.3333 18.3334 13.45 18.3334 14.8333ZM4.16671 15.6667V9.83333H2.50004V15.6667H4.16671ZM16.5834 14.475C16.45 14.2 16.1584 14 15.8334 14H11.375C10.925 14 10.4834 13.9333 10.0584 13.7917L8.07504 13.1333L8.60004 11.55L10.5834 12.2083C10.8334 12.2917 12.5 12.3333 12.5 12.3333C12.5 12.025 12.3084 11.75 12.025 11.6417L7.17504 9.83333H5.83337V14.4167L11.6417 16.0083L16.5834 14.475Z" fill="#333333"/>
<path d="M13.3334 1.69166C13.925 1.00833 14.675 0.666664 15.5834 0.666664C16.3417 0.666664 16.975 0.941664 17.5 1.5C18.025 2.05833 18.3 2.69166 18.3334 3.41666C18.3334 4 18.0584 4.675 17.5 5.46666C16.9417 6.25833 16.4 6.91666 15.8584 7.45833C15.3167 7.99166 14.475 8.78333 13.3334 9.83333C12.175 8.78333 11.325 7.99166 10.7834 7.45833C10.2417 6.925 9.69171 6.25833 9.14171 5.46666C8.59171 4.675 8.33337 4 8.33337 3.41666C8.33337 2.65833 8.60004 2.025 9.14171 1.5C9.68337 0.974997 10.3334 0.699997 11.0917 0.666664C11.9834 0.666664 12.725 1.00833 13.3334 1.69166ZM18.3334 14.8333V15.6667L11.6667 17.75L5.83337 16.1333V17.3333H0.833374V8.16666H7.47504L12.6084 10.0833C13.5417 10.4333 14.1667 11.3333 14.1667 12.3333H15.8334C17.2167 12.3333 18.3334 13.45 18.3334 14.8333ZM4.16671 15.6667V9.83333H2.50004V15.6667H4.16671ZM16.5834 14.475C16.45 14.2 16.1584 14 15.8334 14H11.375C10.925 14 10.4834 13.9333 10.0584 13.7917L8.07504 13.1333L8.60004 11.55L10.5834 12.2083C10.8334 12.2917 12.5 12.3333 12.5 12.3333C12.5 12.025 12.3084 11.75 12.025 11.6417L7.17504 9.83333H5.83337V14.4167L11.6417 16.0083L16.5834 14.475Z" fill="black" fill-opacity="0.2"/>
<path d="M13.3334 1.69166C13.925 1.00833 14.675 0.666664 15.5834 0.666664C16.3417 0.666664 16.975 0.941664 17.5 1.5C18.025 2.05833 18.3 2.69166 18.3334 3.41666C18.3334 4 18.0584 4.675 17.5 5.46666C16.9417 6.25833 16.4 6.91666 15.8584 7.45833C15.3167 7.99166 14.475 8.78333 13.3334 9.83333C12.175 8.78333 11.325 7.99166 10.7834 7.45833C10.2417 6.925 9.69171 6.25833 9.14171 5.46666C8.59171 4.675 8.33337 4 8.33337 3.41666C8.33337 2.65833 8.60004 2.025 9.14171 1.5C9.68337 0.974997 10.3334 0.699997 11.0917 0.666664C11.9834 0.666664 12.725 1.00833 13.3334 1.69166ZM18.3334 14.8333V15.6667L11.6667 17.75L5.83337 16.1333V17.3333H0.833374V8.16666H7.47504L12.6084 10.0833C13.5417 10.4333 14.1667 11.3333 14.1667 12.3333H15.8334C17.2167 12.3333 18.3334 13.45 18.3334 14.8333ZM4.16671 15.6667V9.83333H2.50004V15.6667H4.16671ZM16.5834 14.475C16.45 14.2 16.1584 14 15.8334 14H11.375C10.925 14 10.4834 13.9333 10.0584 13.7917L8.07504 13.1333L8.60004 11.55L10.5834 12.2083C10.8334 12.2917 12.5 12.3333 12.5 12.3333C12.5 12.025 12.3084 11.75 12.025 11.6417L7.17504 9.83333H5.83337V14.4167L11.6417 16.0083L16.5834 14.475Z" fill="black" fill-opacity="0.2"/>
<path d="M13.3334 1.69166C13.925 1.00833 14.675 0.666664 15.5834 0.666664C16.3417 0.666664 16.975 0.941664 17.5 1.5C18.025 2.05833 18.3 2.69166 18.3334 3.41666C18.3334 4 18.0584 4.675 17.5 5.46666C16.9417 6.25833 16.4 6.91666 15.8584 7.45833C15.3167 7.99166 14.475 8.78333 13.3334 9.83333C12.175 8.78333 11.325 7.99166 10.7834 7.45833C10.2417 6.925 9.69171 6.25833 9.14171 5.46666C8.59171 4.675 8.33337 4 8.33337 3.41666C8.33337 2.65833 8.60004 2.025 9.14171 1.5C9.68337 0.974997 10.3334 0.699997 11.0917 0.666664C11.9834 0.666664 12.725 1.00833 13.3334 1.69166ZM18.3334 14.8333V15.6667L11.6667 17.75L5.83337 16.1333V17.3333H0.833374V8.16666H7.47504L12.6084 10.0833C13.5417 10.4333 14.1667 11.3333 14.1667 12.3333H15.8334C17.2167 12.3333 18.3334 13.45 18.3334 14.8333ZM4.16671 15.6667V9.83333H2.50004V15.6667H4.16671ZM16.5834 14.475C16.45 14.2 16.1584 14 15.8334 14H11.375C10.925 14 10.4834 13.9333 10.0584 13.7917L8.07504 13.1333L8.60004 11.55L10.5834 12.2083C10.8334 12.2917 12.5 12.3333 12.5 12.3333C12.5 12.025 12.3084 11.75 12.025 11.6417L7.17504 9.83333H5.83337V14.4167L11.6417 16.0083L16.5834 14.475Z" fill="black" fill-opacity="0.2"/>
<path d="M13.3334 1.69166C13.925 1.00833 14.675 0.666664 15.5834 0.666664C16.3417 0.666664 16.975 0.941664 17.5 1.5C18.025 2.05833 18.3 2.69166 18.3334 3.41666C18.3334 4 18.0584 4.675 17.5 5.46666C16.9417 6.25833 16.4 6.91666 15.8584 7.45833C15.3167 7.99166 14.475 8.78333 13.3334 9.83333C12.175 8.78333 11.325 7.99166 10.7834 7.45833C10.2417 6.925 9.69171 6.25833 9.14171 5.46666C8.59171 4.675 8.33337 4 8.33337 3.41666C8.33337 2.65833 8.60004 2.025 9.14171 1.5C9.68337 0.974997 10.3334 0.699997 11.0917 0.666664C11.9834 0.666664 12.725 1.00833 13.3334 1.69166ZM18.3334 14.8333V15.6667L11.6667 17.75L5.83337 16.1333V17.3333H0.833374V8.16666H7.47504L12.6084 10.0833C13.5417 10.4333 14.1667 11.3333 14.1667 12.3333H15.8334C17.2167 12.3333 18.3334 13.45 18.3334 14.8333ZM4.16671 15.6667V9.83333H2.50004V15.6667H4.16671ZM16.5834 14.475C16.45 14.2 16.1584 14 15.8334 14H11.375C10.925 14 10.4834 13.9333 10.0584 13.7917L8.07504 13.1333L8.60004 11.55L10.5834 12.2083C10.8334 12.2917 12.5 12.3333 12.5 12.3333C12.5 12.025 12.3084 11.75 12.025 11.6417L7.17504 9.83333H5.83337V14.4167L11.6417 16.0083L16.5834 14.475Z" fill="black" fill-opacity="0.2"/>
<path d="M13.3334 1.69166C13.925 1.00833 14.675 0.666664 15.5834 0.666664C16.3417 0.666664 16.975 0.941664 17.5 1.5C18.025 2.05833 18.3 2.69166 18.3334 3.41666C18.3334 4 18.0584 4.675 17.5 5.46666C16.9417 6.25833 16.4 6.91666 15.8584 7.45833C15.3167 7.99166 14.475 8.78333 13.3334 9.83333C12.175 8.78333 11.325 7.99166 10.7834 7.45833C10.2417 6.925 9.69171 6.25833 9.14171 5.46666C8.59171 4.675 8.33337 4 8.33337 3.41666C8.33337 2.65833 8.60004 2.025 9.14171 1.5C9.68337 0.974997 10.3334 0.699997 11.0917 0.666664C11.9834 0.666664 12.725 1.00833 13.3334 1.69166ZM18.3334 14.8333V15.6667L11.6667 17.75L5.83337 16.1333V17.3333H0.833374V8.16666H7.47504L12.6084 10.0833C13.5417 10.4333 14.1667 11.3333 14.1667 12.3333H15.8334C17.2167 12.3333 18.3334 13.45 18.3334 14.8333ZM4.16671 15.6667V9.83333H2.50004V15.6667H4.16671ZM16.5834 14.475C16.45 14.2 16.1584 14 15.8334 14H11.375C10.925 14 10.4834 13.9333 10.0584 13.7917L8.07504 13.1333L8.60004 11.55L10.5834 12.2083C10.8334 12.2917 12.5 12.3333 12.5 12.3333C12.5 12.025 12.3084 11.75 12.025 11.6417L7.17504 9.83333H5.83337V14.4167L11.6417 16.0083L16.5834 14.475Z" fill="black" fill-opacity="0.2"/>
<path d="M13.3334 1.69166C13.925 1.00833 14.675 0.666664 15.5834 0.666664C16.3417 0.666664 16.975 0.941664 17.5 1.5C18.025 2.05833 18.3 2.69166 18.3334 3.41666C18.3334 4 18.0584 4.675 17.5 5.46666C16.9417 6.25833 16.4 6.91666 15.8584 7.45833C15.3167 7.99166 14.475 8.78333 13.3334 9.83333C12.175 8.78333 11.325 7.99166 10.7834 7.45833C10.2417 6.925 9.69171 6.25833 9.14171 5.46666C8.59171 4.675 8.33337 4 8.33337 3.41666C8.33337 2.65833 8.60004 2.025 9.14171 1.5C9.68337 0.974997 10.3334 0.699997 11.0917 0.666664C11.9834 0.666664 12.725 1.00833 13.3334 1.69166ZM18.3334 14.8333V15.6667L11.6667 17.75L5.83337 16.1333V17.3333H0.833374V8.16666H7.47504L12.6084 10.0833C13.5417 10.4333 14.1667 11.3333 14.1667 12.3333H15.8334C17.2167 12.3333 18.3334 13.45 18.3334 14.8333ZM4.16671 15.6667V9.83333H2.50004V15.6667H4.16671ZM16.5834 14.475C16.45 14.2 16.1584 14 15.8334 14H11.375C10.925 14 10.4834 13.9333 10.0584 13.7917L8.07504 13.1333L8.60004 11.55L10.5834 12.2083C10.8334 12.2917 12.5 12.3333 12.5 12.3333C12.5 12.025 12.3084 11.75 12.025 11.6417L7.17504 9.83333H5.83337V14.4167L11.6417 16.0083L16.5834 14.475Z" fill="black" fill-opacity="0.2"/>
</svg>
