<svg width="15" height="18" viewBox="0 0 15 18" fill="none" xmlns="http://www.w3.org/2000/svg">
<path d="M8 17.3334L7.79167 14.8334H7.58333C5.61111 14.8334 3.9375 14.1459 2.5625 12.7709C1.1875 11.3959 0.5 9.72224 0.5 7.75002C0.5 5.7778 1.1875 4.10419 2.5625 2.72919C3.9375 1.35419 5.61111 0.666687 7.58333 0.666687C8.56944 0.666687 9.48972 0.850576 10.3442 1.21835C11.1986 1.58613 11.9486 2.09308 12.5942 2.73919C13.2397 3.3853 13.7464 4.1353 14.1142 4.98919C14.4819 5.84308 14.6661 6.76335 14.6667 7.75002C14.6667 8.79169 14.4964 9.79169 14.1558 10.75C13.8153 11.7084 13.35 12.5972 12.76 13.4167C12.17 14.2361 11.4686 14.9792 10.6558 15.6459C9.84306 16.3125 8.95778 16.875 8 17.3334ZM9.66667 14.2917C10.6528 13.4584 11.455 12.4825 12.0733 11.3642C12.6917 10.2459 13.0006 9.04113 13 7.75002C13 6.23613 12.4756 4.95502 11.4267 3.90669C10.3778 2.85835 9.09667 2.33391 7.58333 2.33335C6.06944 2.33335 4.78833 2.8578 3.74 3.90669C2.69167 4.95558 2.16722 6.23669 2.16667 7.75002C2.16667 9.26391 2.69111 10.545 3.74 11.5934C4.78889 12.6417 6.07 13.1661 7.58333 13.1667H9.66667V14.2917ZM7.5625 12.3125C7.79861 12.3125 8 12.2292 8.16667 12.0625C8.33333 11.8959 8.41667 11.6945 8.41667 11.4584C8.41667 11.2222 8.33333 11.0209 8.16667 10.8542C8 10.6875 7.79861 10.6042 7.5625 10.6042C7.32639 10.6042 7.125 10.6875 6.95833 10.8542C6.79167 11.0209 6.70833 11.2222 6.70833 11.4584C6.70833 11.6945 6.79167 11.8959 6.95833 12.0625C7.125 12.2292 7.32639 12.3125 7.5625 12.3125ZM6.95833 9.66669H8.20833C8.20833 9.25002 8.25 8.95835 8.33333 8.79169C8.41667 8.62502 8.68056 8.31946 9.125 7.87502C9.375 7.62502 9.58333 7.35419 9.75 7.06252C9.91667 6.77085 10 6.45835 10 6.12502C10 5.41669 9.76028 4.8853 9.28083 4.53085C8.80139 4.17641 8.23556 3.99946 7.58333 4.00002C6.97222 4.00002 6.45833 4.1703 6.04167 4.51085C5.625 4.85141 5.33333 5.26447 5.16667 5.75002L6.33333 6.20835C6.40278 5.97224 6.53472 5.73946 6.72917 5.51002C6.92361 5.28058 7.20833 5.16613 7.58333 5.16669C7.95833 5.16669 8.23944 5.27085 8.42667 5.47919C8.61389 5.68752 8.70778 5.91669 8.70833 6.16669C8.70833 6.4028 8.63889 6.61474 8.5 6.80252C8.36111 6.9903 8.19444 7.18113 8 7.37502C7.51389 7.79169 7.21861 8.12169 7.11417 8.36502C7.00972 8.60835 6.95778 9.04224 6.95833 9.66669Z" fill="#5C5C5C"/>
<path d="M8 17.3334L7.79167 14.8334H7.58333C5.61111 14.8334 3.9375 14.1459 2.5625 12.7709C1.1875 11.3959 0.5 9.72224 0.5 7.75002C0.5 5.7778 1.1875 4.10419 2.5625 2.72919C3.9375 1.35419 5.61111 0.666687 7.58333 0.666687C8.56944 0.666687 9.48972 0.850576 10.3442 1.21835C11.1986 1.58613 11.9486 2.09308 12.5942 2.73919C13.2397 3.3853 13.7464 4.1353 14.1142 4.98919C14.4819 5.84308 14.6661 6.76335 14.6667 7.75002C14.6667 8.79169 14.4964 9.79169 14.1558 10.75C13.8153 11.7084 13.35 12.5972 12.76 13.4167C12.17 14.2361 11.4686 14.9792 10.6558 15.6459C9.84306 16.3125 8.95778 16.875 8 17.3334ZM9.66667 14.2917C10.6528 13.4584 11.455 12.4825 12.0733 11.3642C12.6917 10.2459 13.0006 9.04113 13 7.75002C13 6.23613 12.4756 4.95502 11.4267 3.90669C10.3778 2.85835 9.09667 2.33391 7.58333 2.33335C6.06944 2.33335 4.78833 2.8578 3.74 3.90669C2.69167 4.95558 2.16722 6.23669 2.16667 7.75002C2.16667 9.26391 2.69111 10.545 3.74 11.5934C4.78889 12.6417 6.07 13.1661 7.58333 13.1667H9.66667V14.2917ZM7.5625 12.3125C7.79861 12.3125 8 12.2292 8.16667 12.0625C8.33333 11.8959 8.41667 11.6945 8.41667 11.4584C8.41667 11.2222 8.33333 11.0209 8.16667 10.8542C8 10.6875 7.79861 10.6042 7.5625 10.6042C7.32639 10.6042 7.125 10.6875 6.95833 10.8542C6.79167 11.0209 6.70833 11.2222 6.70833 11.4584C6.70833 11.6945 6.79167 11.8959 6.95833 12.0625C7.125 12.2292 7.32639 12.3125 7.5625 12.3125ZM6.95833 9.66669H8.20833C8.20833 9.25002 8.25 8.95835 8.33333 8.79169C8.41667 8.62502 8.68056 8.31946 9.125 7.87502C9.375 7.62502 9.58333 7.35419 9.75 7.06252C9.91667 6.77085 10 6.45835 10 6.12502C10 5.41669 9.76028 4.8853 9.28083 4.53085C8.80139 4.17641 8.23556 3.99946 7.58333 4.00002C6.97222 4.00002 6.45833 4.1703 6.04167 4.51085C5.625 4.85141 5.33333 5.26447 5.16667 5.75002L6.33333 6.20835C6.40278 5.97224 6.53472 5.73946 6.72917 5.51002C6.92361 5.28058 7.20833 5.16613 7.58333 5.16669C7.95833 5.16669 8.23944 5.27085 8.42667 5.47919C8.61389 5.68752 8.70778 5.91669 8.70833 6.16669C8.70833 6.4028 8.63889 6.61474 8.5 6.80252C8.36111 6.9903 8.19444 7.18113 8 7.37502C7.51389 7.79169 7.21861 8.12169 7.11417 8.36502C7.00972 8.60835 6.95778 9.04224 6.95833 9.66669Z" fill="black" fill-opacity="0.2"/>
<path d="M8 17.3334L7.79167 14.8334H7.58333C5.61111 14.8334 3.9375 14.1459 2.5625 12.7709C1.1875 11.3959 0.5 9.72224 0.5 7.75002C0.5 5.7778 1.1875 4.10419 2.5625 2.72919C3.9375 1.35419 5.61111 0.666687 7.58333 0.666687C8.56944 0.666687 9.48972 0.850576 10.3442 1.21835C11.1986 1.58613 11.9486 2.09308 12.5942 2.73919C13.2397 3.3853 13.7464 4.1353 14.1142 4.98919C14.4819 5.84308 14.6661 6.76335 14.6667 7.75002C14.6667 8.79169 14.4964 9.79169 14.1558 10.75C13.8153 11.7084 13.35 12.5972 12.76 13.4167C12.17 14.2361 11.4686 14.9792 10.6558 15.6459C9.84306 16.3125 8.95778 16.875 8 17.3334ZM9.66667 14.2917C10.6528 13.4584 11.455 12.4825 12.0733 11.3642C12.6917 10.2459 13.0006 9.04113 13 7.75002C13 6.23613 12.4756 4.95502 11.4267 3.90669C10.3778 2.85835 9.09667 2.33391 7.58333 2.33335C6.06944 2.33335 4.78833 2.8578 3.74 3.90669C2.69167 4.95558 2.16722 6.23669 2.16667 7.75002C2.16667 9.26391 2.69111 10.545 3.74 11.5934C4.78889 12.6417 6.07 13.1661 7.58333 13.1667H9.66667V14.2917ZM7.5625 12.3125C7.79861 12.3125 8 12.2292 8.16667 12.0625C8.33333 11.8959 8.41667 11.6945 8.41667 11.4584C8.41667 11.2222 8.33333 11.0209 8.16667 10.8542C8 10.6875 7.79861 10.6042 7.5625 10.6042C7.32639 10.6042 7.125 10.6875 6.95833 10.8542C6.79167 11.0209 6.70833 11.2222 6.70833 11.4584C6.70833 11.6945 6.79167 11.8959 6.95833 12.0625C7.125 12.2292 7.32639 12.3125 7.5625 12.3125ZM6.95833 9.66669H8.20833C8.20833 9.25002 8.25 8.95835 8.33333 8.79169C8.41667 8.62502 8.68056 8.31946 9.125 7.87502C9.375 7.62502 9.58333 7.35419 9.75 7.06252C9.91667 6.77085 10 6.45835 10 6.12502C10 5.41669 9.76028 4.8853 9.28083 4.53085C8.80139 4.17641 8.23556 3.99946 7.58333 4.00002C6.97222 4.00002 6.45833 4.1703 6.04167 4.51085C5.625 4.85141 5.33333 5.26447 5.16667 5.75002L6.33333 6.20835C6.40278 5.97224 6.53472 5.73946 6.72917 5.51002C6.92361 5.28058 7.20833 5.16613 7.58333 5.16669C7.95833 5.16669 8.23944 5.27085 8.42667 5.47919C8.61389 5.68752 8.70778 5.91669 8.70833 6.16669C8.70833 6.4028 8.63889 6.61474 8.5 6.80252C8.36111 6.9903 8.19444 7.18113 8 7.37502C7.51389 7.79169 7.21861 8.12169 7.11417 8.36502C7.00972 8.60835 6.95778 9.04224 6.95833 9.66669Z" fill="black" fill-opacity="0.2"/>
<path d="M8 17.3334L7.79167 14.8334H7.58333C5.61111 14.8334 3.9375 14.1459 2.5625 12.7709C1.1875 11.3959 0.5 9.72224 0.5 7.75002C0.5 5.7778 1.1875 4.10419 2.5625 2.72919C3.9375 1.35419 5.61111 0.666687 7.58333 0.666687C8.56944 0.666687 9.48972 0.850576 10.3442 1.21835C11.1986 1.58613 11.9486 2.09308 12.5942 2.73919C13.2397 3.3853 13.7464 4.1353 14.1142 4.98919C14.4819 5.84308 14.6661 6.76335 14.6667 7.75002C14.6667 8.79169 14.4964 9.79169 14.1558 10.75C13.8153 11.7084 13.35 12.5972 12.76 13.4167C12.17 14.2361 11.4686 14.9792 10.6558 15.6459C9.84306 16.3125 8.95778 16.875 8 17.3334ZM9.66667 14.2917C10.6528 13.4584 11.455 12.4825 12.0733 11.3642C12.6917 10.2459 13.0006 9.04113 13 7.75002C13 6.23613 12.4756 4.95502 11.4267 3.90669C10.3778 2.85835 9.09667 2.33391 7.58333 2.33335C6.06944 2.33335 4.78833 2.8578 3.74 3.90669C2.69167 4.95558 2.16722 6.23669 2.16667 7.75002C2.16667 9.26391 2.69111 10.545 3.74 11.5934C4.78889 12.6417 6.07 13.1661 7.58333 13.1667H9.66667V14.2917ZM7.5625 12.3125C7.79861 12.3125 8 12.2292 8.16667 12.0625C8.33333 11.8959 8.41667 11.6945 8.41667 11.4584C8.41667 11.2222 8.33333 11.0209 8.16667 10.8542C8 10.6875 7.79861 10.6042 7.5625 10.6042C7.32639 10.6042 7.125 10.6875 6.95833 10.8542C6.79167 11.0209 6.70833 11.2222 6.70833 11.4584C6.70833 11.6945 6.79167 11.8959 6.95833 12.0625C7.125 12.2292 7.32639 12.3125 7.5625 12.3125ZM6.95833 9.66669H8.20833C8.20833 9.25002 8.25 8.95835 8.33333 8.79169C8.41667 8.62502 8.68056 8.31946 9.125 7.87502C9.375 7.62502 9.58333 7.35419 9.75 7.06252C9.91667 6.77085 10 6.45835 10 6.12502C10 5.41669 9.76028 4.8853 9.28083 4.53085C8.80139 4.17641 8.23556 3.99946 7.58333 4.00002C6.97222 4.00002 6.45833 4.1703 6.04167 4.51085C5.625 4.85141 5.33333 5.26447 5.16667 5.75002L6.33333 6.20835C6.40278 5.97224 6.53472 5.73946 6.72917 5.51002C6.92361 5.28058 7.20833 5.16613 7.58333 5.16669C7.95833 5.16669 8.23944 5.27085 8.42667 5.47919C8.61389 5.68752 8.70778 5.91669 8.70833 6.16669C8.70833 6.4028 8.63889 6.61474 8.5 6.80252C8.36111 6.9903 8.19444 7.18113 8 7.37502C7.51389 7.79169 7.21861 8.12169 7.11417 8.36502C7.00972 8.60835 6.95778 9.04224 6.95833 9.66669Z" fill="black" fill-opacity="0.2"/>
<path d="M8 17.3334L7.79167 14.8334H7.58333C5.61111 14.8334 3.9375 14.1459 2.5625 12.7709C1.1875 11.3959 0.5 9.72224 0.5 7.75002C0.5 5.7778 1.1875 4.10419 2.5625 2.72919C3.9375 1.35419 5.61111 0.666687 7.58333 0.666687C8.56944 0.666687 9.48972 0.850576 10.3442 1.21835C11.1986 1.58613 11.9486 2.09308 12.5942 2.73919C13.2397 3.3853 13.7464 4.1353 14.1142 4.98919C14.4819 5.84308 14.6661 6.76335 14.6667 7.75002C14.6667 8.79169 14.4964 9.79169 14.1558 10.75C13.8153 11.7084 13.35 12.5972 12.76 13.4167C12.17 14.2361 11.4686 14.9792 10.6558 15.6459C9.84306 16.3125 8.95778 16.875 8 17.3334ZM9.66667 14.2917C10.6528 13.4584 11.455 12.4825 12.0733 11.3642C12.6917 10.2459 13.0006 9.04113 13 7.75002C13 6.23613 12.4756 4.95502 11.4267 3.90669C10.3778 2.85835 9.09667 2.33391 7.58333 2.33335C6.06944 2.33335 4.78833 2.8578 3.74 3.90669C2.69167 4.95558 2.16722 6.23669 2.16667 7.75002C2.16667 9.26391 2.69111 10.545 3.74 11.5934C4.78889 12.6417 6.07 13.1661 7.58333 13.1667H9.66667V14.2917ZM7.5625 12.3125C7.79861 12.3125 8 12.2292 8.16667 12.0625C8.33333 11.8959 8.41667 11.6945 8.41667 11.4584C8.41667 11.2222 8.33333 11.0209 8.16667 10.8542C8 10.6875 7.79861 10.6042 7.5625 10.6042C7.32639 10.6042 7.125 10.6875 6.95833 10.8542C6.79167 11.0209 6.70833 11.2222 6.70833 11.4584C6.70833 11.6945 6.79167 11.8959 6.95833 12.0625C7.125 12.2292 7.32639 12.3125 7.5625 12.3125ZM6.95833 9.66669H8.20833C8.20833 9.25002 8.25 8.95835 8.33333 8.79169C8.41667 8.62502 8.68056 8.31946 9.125 7.87502C9.375 7.62502 9.58333 7.35419 9.75 7.06252C9.91667 6.77085 10 6.45835 10 6.12502C10 5.41669 9.76028 4.8853 9.28083 4.53085C8.80139 4.17641 8.23556 3.99946 7.58333 4.00002C6.97222 4.00002 6.45833 4.1703 6.04167 4.51085C5.625 4.85141 5.33333 5.26447 5.16667 5.75002L6.33333 6.20835C6.40278 5.97224 6.53472 5.73946 6.72917 5.51002C6.92361 5.28058 7.20833 5.16613 7.58333 5.16669C7.95833 5.16669 8.23944 5.27085 8.42667 5.47919C8.61389 5.68752 8.70778 5.91669 8.70833 6.16669C8.70833 6.4028 8.63889 6.61474 8.5 6.80252C8.36111 6.9903 8.19444 7.18113 8 7.37502C7.51389 7.79169 7.21861 8.12169 7.11417 8.36502C7.00972 8.60835 6.95778 9.04224 6.95833 9.66669Z" fill="black" fill-opacity="0.2"/>
</svg>
