<svg width="16" height="16" viewBox="0 0 16 16" fill="none" xmlns="http://www.w3.org/2000/svg">
<path d="M5.12501 2.99996C5.12477 2.53243 4.99344 2.07433 4.74592 1.6777C4.49841 1.28106 4.14463 0.961778 3.72476 0.756109C3.3049 0.550441 2.83578 0.466629 2.37067 0.514193C1.90557 0.561756 1.46312 0.738788 1.09358 1.02518C0.724034 1.31158 0.442205 1.69586 0.280097 2.13439C0.117988 2.57292 0.0820973 3.04811 0.1765 3.50601C0.270902 3.96392 0.491815 4.38617 0.814149 4.72482C1.13648 5.06347 1.54732 5.30495 2.00001 5.42184V10.5781C1.41084 10.7302 0.897388 11.092 0.55588 11.5956C0.214372 12.0992 0.0682603 12.7101 0.144932 13.3137C0.221603 13.9173 0.515794 14.4723 0.972361 14.8745C1.42893 15.2768 2.01652 15.4987 2.62501 15.4987C3.23349 15.4987 3.82109 15.2768 4.27765 14.8745C4.73422 14.4723 5.02841 13.9173 5.10508 13.3137C5.18175 12.7101 5.03564 12.0992 4.69413 11.5956C4.35262 11.092 3.83917 10.7302 3.25001 10.5781V5.42184C3.78646 5.2825 4.26154 4.96916 4.60084 4.5309C4.94013 4.09264 5.12448 3.55421 5.12501 2.99996ZM3.87501 13C3.87501 13.2472 3.80169 13.4889 3.66434 13.6944C3.52699 13.9 3.33177 14.0602 3.10336 14.1548C2.87495 14.2494 2.62362 14.2742 2.38114 14.2259C2.13867 14.1777 1.91594 14.0587 1.74112 13.8838C1.56631 13.709 1.44726 13.4863 1.39902 13.2438C1.35079 13.0013 1.37555 12.75 1.47016 12.5216C1.56477 12.2932 1.72498 12.098 1.93054 11.9606C2.1361 11.8233 2.37778 11.75 2.62501 11.75C2.95653 11.75 3.27447 11.8817 3.50889 12.1161C3.74331 12.3505 3.87501 12.6684 3.87501 13ZM2.62501 4.24996C2.37778 4.24996 2.1361 4.17665 1.93054 4.0393C1.72498 3.90195 1.56477 3.70672 1.47016 3.47832C1.37555 3.24991 1.35079 2.99858 1.39902 2.7561C1.44726 2.51362 1.56631 2.29089 1.74112 2.11608C1.91594 1.94126 2.13867 1.82221 2.38114 1.77398C2.62362 1.72575 2.87495 1.7505 3.10336 1.84511C3.33177 1.93972 3.52699 2.09994 3.66434 2.3055C3.80169 2.51106 3.87501 2.75274 3.87501 2.99996C3.87501 3.33148 3.74331 3.64942 3.50889 3.88385C3.27447 4.11827 2.95653 4.24996 2.62501 4.24996ZM13.25 10.5781V7.67809C13.2515 7.10333 13.139 6.53398 12.9191 6.00296C12.6991 5.47194 12.3761 4.98977 11.9688 4.58434L9.7586 2.37496H12C12.1658 2.37496 12.3247 2.30911 12.4419 2.1919C12.5592 2.07469 12.625 1.91572 12.625 1.74996C12.625 1.5842 12.5592 1.42523 12.4419 1.30802C12.3247 1.19081 12.1658 1.12496 12 1.12496H8.25001C8.08425 1.12496 7.92527 1.19081 7.80806 1.30802C7.69085 1.42523 7.62501 1.5842 7.62501 1.74996V5.49996C7.62501 5.66572 7.69085 5.82469 7.80806 5.9419C7.92527 6.05911 8.08425 6.12496 8.25001 6.12496C8.41577 6.12496 8.57474 6.05911 8.69195 5.9419C8.80916 5.82469 8.87501 5.66572 8.87501 5.49996V3.25856L11.0844 5.46871C11.3756 5.75808 11.6065 6.10237 11.7636 6.48162C11.9208 6.86088 12.0012 7.26755 12 7.67809V10.5781C11.4108 10.7302 10.8974 11.092 10.5559 11.5956C10.2144 12.0992 10.0683 12.7101 10.1449 13.3137C10.2216 13.9173 10.5158 14.4723 10.9724 14.8745C11.4289 15.2768 12.0165 15.4987 12.625 15.4987C13.2335 15.4987 13.8211 15.2768 14.2777 14.8745C14.7342 14.4723 15.0284 13.9173 15.1051 13.3137C15.1818 12.7101 15.0356 12.0992 14.6941 11.5956C14.3526 11.092 13.8392 10.7302 13.25 10.5781ZM12.625 14.25C12.3778 14.25 12.1361 14.1767 11.9305 14.0393C11.725 13.9019 11.5648 13.7067 11.4702 13.4783C11.3755 13.2499 11.3508 12.9986 11.399 12.7561C11.4473 12.5136 11.5663 12.2909 11.7411 12.1161C11.9159 11.9413 12.1387 11.8222 12.3811 11.774C12.6236 11.7257 12.875 11.7505 13.1034 11.8451C13.3318 11.9397 13.527 12.0999 13.6643 12.3055C13.8017 12.5111 13.875 12.7527 13.875 13C13.875 13.3315 13.7433 13.6494 13.5089 13.8838C13.2745 14.1183 12.9565 14.25 12.625 14.25Z" fill="#5C5C5C"/>
<path d="M5.12501 2.99996C5.12477 2.53243 4.99344 2.07433 4.74592 1.6777C4.49841 1.28106 4.14463 0.961778 3.72476 0.756109C3.3049 0.550441 2.83578 0.466629 2.37067 0.514193C1.90557 0.561756 1.46312 0.738788 1.09358 1.02518C0.724034 1.31158 0.442205 1.69586 0.280097 2.13439C0.117988 2.57292 0.0820973 3.04811 0.1765 3.50601C0.270902 3.96392 0.491815 4.38617 0.814149 4.72482C1.13648 5.06347 1.54732 5.30495 2.00001 5.42184V10.5781C1.41084 10.7302 0.897388 11.092 0.55588 11.5956C0.214372 12.0992 0.0682603 12.7101 0.144932 13.3137C0.221603 13.9173 0.515794 14.4723 0.972361 14.8745C1.42893 15.2768 2.01652 15.4987 2.62501 15.4987C3.23349 15.4987 3.82109 15.2768 4.27765 14.8745C4.73422 14.4723 5.02841 13.9173 5.10508 13.3137C5.18175 12.7101 5.03564 12.0992 4.69413 11.5956C4.35262 11.092 3.83917 10.7302 3.25001 10.5781V5.42184C3.78646 5.2825 4.26154 4.96916 4.60084 4.5309C4.94013 4.09264 5.12448 3.55421 5.12501 2.99996ZM3.87501 13C3.87501 13.2472 3.80169 13.4889 3.66434 13.6944C3.52699 13.9 3.33177 14.0602 3.10336 14.1548C2.87495 14.2494 2.62362 14.2742 2.38114 14.2259C2.13867 14.1777 1.91594 14.0587 1.74112 13.8838C1.56631 13.709 1.44726 13.4863 1.39902 13.2438C1.35079 13.0013 1.37555 12.75 1.47016 12.5216C1.56477 12.2932 1.72498 12.098 1.93054 11.9606C2.1361 11.8233 2.37778 11.75 2.62501 11.75C2.95653 11.75 3.27447 11.8817 3.50889 12.1161C3.74331 12.3505 3.87501 12.6684 3.87501 13ZM2.62501 4.24996C2.37778 4.24996 2.1361 4.17665 1.93054 4.0393C1.72498 3.90195 1.56477 3.70672 1.47016 3.47832C1.37555 3.24991 1.35079 2.99858 1.39902 2.7561C1.44726 2.51362 1.56631 2.29089 1.74112 2.11608C1.91594 1.94126 2.13867 1.82221 2.38114 1.77398C2.62362 1.72575 2.87495 1.7505 3.10336 1.84511C3.33177 1.93972 3.52699 2.09994 3.66434 2.3055C3.80169 2.51106 3.87501 2.75274 3.87501 2.99996C3.87501 3.33148 3.74331 3.64942 3.50889 3.88385C3.27447 4.11827 2.95653 4.24996 2.62501 4.24996ZM13.25 10.5781V7.67809C13.2515 7.10333 13.139 6.53398 12.9191 6.00296C12.6991 5.47194 12.3761 4.98977 11.9688 4.58434L9.7586 2.37496H12C12.1658 2.37496 12.3247 2.30911 12.4419 2.1919C12.5592 2.07469 12.625 1.91572 12.625 1.74996C12.625 1.5842 12.5592 1.42523 12.4419 1.30802C12.3247 1.19081 12.1658 1.12496 12 1.12496H8.25001C8.08425 1.12496 7.92527 1.19081 7.80806 1.30802C7.69085 1.42523 7.62501 1.5842 7.62501 1.74996V5.49996C7.62501 5.66572 7.69085 5.82469 7.80806 5.9419C7.92527 6.05911 8.08425 6.12496 8.25001 6.12496C8.41577 6.12496 8.57474 6.05911 8.69195 5.9419C8.80916 5.82469 8.87501 5.66572 8.87501 5.49996V3.25856L11.0844 5.46871C11.3756 5.75808 11.6065 6.10237 11.7636 6.48162C11.9208 6.86088 12.0012 7.26755 12 7.67809V10.5781C11.4108 10.7302 10.8974 11.092 10.5559 11.5956C10.2144 12.0992 10.0683 12.7101 10.1449 13.3137C10.2216 13.9173 10.5158 14.4723 10.9724 14.8745C11.4289 15.2768 12.0165 15.4987 12.625 15.4987C13.2335 15.4987 13.8211 15.2768 14.2777 14.8745C14.7342 14.4723 15.0284 13.9173 15.1051 13.3137C15.1818 12.7101 15.0356 12.0992 14.6941 11.5956C14.3526 11.092 13.8392 10.7302 13.25 10.5781ZM12.625 14.25C12.3778 14.25 12.1361 14.1767 11.9305 14.0393C11.725 13.9019 11.5648 13.7067 11.4702 13.4783C11.3755 13.2499 11.3508 12.9986 11.399 12.7561C11.4473 12.5136 11.5663 12.2909 11.7411 12.1161C11.9159 11.9413 12.1387 11.8222 12.3811 11.774C12.6236 11.7257 12.875 11.7505 13.1034 11.8451C13.3318 11.9397 13.527 12.0999 13.6643 12.3055C13.8017 12.5111 13.875 12.7527 13.875 13C13.875 13.3315 13.7433 13.6494 13.5089 13.8838C13.2745 14.1183 12.9565 14.25 12.625 14.25Z" fill="black" fill-opacity="0.2"/>
<path d="M5.12501 2.99996C5.12477 2.53243 4.99344 2.07433 4.74592 1.6777C4.49841 1.28106 4.14463 0.961778 3.72476 0.756109C3.3049 0.550441 2.83578 0.466629 2.37067 0.514193C1.90557 0.561756 1.46312 0.738788 1.09358 1.02518C0.724034 1.31158 0.442205 1.69586 0.280097 2.13439C0.117988 2.57292 0.0820973 3.04811 0.1765 3.50601C0.270902 3.96392 0.491815 4.38617 0.814149 4.72482C1.13648 5.06347 1.54732 5.30495 2.00001 5.42184V10.5781C1.41084 10.7302 0.897388 11.092 0.55588 11.5956C0.214372 12.0992 0.0682603 12.7101 0.144932 13.3137C0.221603 13.9173 0.515794 14.4723 0.972361 14.8745C1.42893 15.2768 2.01652 15.4987 2.62501 15.4987C3.23349 15.4987 3.82109 15.2768 4.27765 14.8745C4.73422 14.4723 5.02841 13.9173 5.10508 13.3137C5.18175 12.7101 5.03564 12.0992 4.69413 11.5956C4.35262 11.092 3.83917 10.7302 3.25001 10.5781V5.42184C3.78646 5.2825 4.26154 4.96916 4.60084 4.5309C4.94013 4.09264 5.12448 3.55421 5.12501 2.99996ZM3.87501 13C3.87501 13.2472 3.80169 13.4889 3.66434 13.6944C3.52699 13.9 3.33177 14.0602 3.10336 14.1548C2.87495 14.2494 2.62362 14.2742 2.38114 14.2259C2.13867 14.1777 1.91594 14.0587 1.74112 13.8838C1.56631 13.709 1.44726 13.4863 1.39902 13.2438C1.35079 13.0013 1.37555 12.75 1.47016 12.5216C1.56477 12.2932 1.72498 12.098 1.93054 11.9606C2.1361 11.8233 2.37778 11.75 2.62501 11.75C2.95653 11.75 3.27447 11.8817 3.50889 12.1161C3.74331 12.3505 3.87501 12.6684 3.87501 13ZM2.62501 4.24996C2.37778 4.24996 2.1361 4.17665 1.93054 4.0393C1.72498 3.90195 1.56477 3.70672 1.47016 3.47832C1.37555 3.24991 1.35079 2.99858 1.39902 2.7561C1.44726 2.51362 1.56631 2.29089 1.74112 2.11608C1.91594 1.94126 2.13867 1.82221 2.38114 1.77398C2.62362 1.72575 2.87495 1.7505 3.10336 1.84511C3.33177 1.93972 3.52699 2.09994 3.66434 2.3055C3.80169 2.51106 3.87501 2.75274 3.87501 2.99996C3.87501 3.33148 3.74331 3.64942 3.50889 3.88385C3.27447 4.11827 2.95653 4.24996 2.62501 4.24996ZM13.25 10.5781V7.67809C13.2515 7.10333 13.139 6.53398 12.9191 6.00296C12.6991 5.47194 12.3761 4.98977 11.9688 4.58434L9.7586 2.37496H12C12.1658 2.37496 12.3247 2.30911 12.4419 2.1919C12.5592 2.07469 12.625 1.91572 12.625 1.74996C12.625 1.5842 12.5592 1.42523 12.4419 1.30802C12.3247 1.19081 12.1658 1.12496 12 1.12496H8.25001C8.08425 1.12496 7.92527 1.19081 7.80806 1.30802C7.69085 1.42523 7.62501 1.5842 7.62501 1.74996V5.49996C7.62501 5.66572 7.69085 5.82469 7.80806 5.9419C7.92527 6.05911 8.08425 6.12496 8.25001 6.12496C8.41577 6.12496 8.57474 6.05911 8.69195 5.9419C8.80916 5.82469 8.87501 5.66572 8.87501 5.49996V3.25856L11.0844 5.46871C11.3756 5.75808 11.6065 6.10237 11.7636 6.48162C11.9208 6.86088 12.0012 7.26755 12 7.67809V10.5781C11.4108 10.7302 10.8974 11.092 10.5559 11.5956C10.2144 12.0992 10.0683 12.7101 10.1449 13.3137C10.2216 13.9173 10.5158 14.4723 10.9724 14.8745C11.4289 15.2768 12.0165 15.4987 12.625 15.4987C13.2335 15.4987 13.8211 15.2768 14.2777 14.8745C14.7342 14.4723 15.0284 13.9173 15.1051 13.3137C15.1818 12.7101 15.0356 12.0992 14.6941 11.5956C14.3526 11.092 13.8392 10.7302 13.25 10.5781ZM12.625 14.25C12.3778 14.25 12.1361 14.1767 11.9305 14.0393C11.725 13.9019 11.5648 13.7067 11.4702 13.4783C11.3755 13.2499 11.3508 12.9986 11.399 12.7561C11.4473 12.5136 11.5663 12.2909 11.7411 12.1161C11.9159 11.9413 12.1387 11.8222 12.3811 11.774C12.6236 11.7257 12.875 11.7505 13.1034 11.8451C13.3318 11.9397 13.527 12.0999 13.6643 12.3055C13.8017 12.5111 13.875 12.7527 13.875 13C13.875 13.3315 13.7433 13.6494 13.5089 13.8838C13.2745 14.1183 12.9565 14.25 12.625 14.25Z" fill="black" fill-opacity="0.2"/>
<path d="M5.12501 2.99996C5.12477 2.53243 4.99344 2.07433 4.74592 1.6777C4.49841 1.28106 4.14463 0.961778 3.72476 0.756109C3.3049 0.550441 2.83578 0.466629 2.37067 0.514193C1.90557 0.561756 1.46312 0.738788 1.09358 1.02518C0.724034 1.31158 0.442205 1.69586 0.280097 2.13439C0.117988 2.57292 0.0820973 3.04811 0.1765 3.50601C0.270902 3.96392 0.491815 4.38617 0.814149 4.72482C1.13648 5.06347 1.54732 5.30495 2.00001 5.42184V10.5781C1.41084 10.7302 0.897388 11.092 0.55588 11.5956C0.214372 12.0992 0.0682603 12.7101 0.144932 13.3137C0.221603 13.9173 0.515794 14.4723 0.972361 14.8745C1.42893 15.2768 2.01652 15.4987 2.62501 15.4987C3.23349 15.4987 3.82109 15.2768 4.27765 14.8745C4.73422 14.4723 5.02841 13.9173 5.10508 13.3137C5.18175 12.7101 5.03564 12.0992 4.69413 11.5956C4.35262 11.092 3.83917 10.7302 3.25001 10.5781V5.42184C3.78646 5.2825 4.26154 4.96916 4.60084 4.5309C4.94013 4.09264 5.12448 3.55421 5.12501 2.99996ZM3.87501 13C3.87501 13.2472 3.80169 13.4889 3.66434 13.6944C3.52699 13.9 3.33177 14.0602 3.10336 14.1548C2.87495 14.2494 2.62362 14.2742 2.38114 14.2259C2.13867 14.1777 1.91594 14.0587 1.74112 13.8838C1.56631 13.709 1.44726 13.4863 1.39902 13.2438C1.35079 13.0013 1.37555 12.75 1.47016 12.5216C1.56477 12.2932 1.72498 12.098 1.93054 11.9606C2.1361 11.8233 2.37778 11.75 2.62501 11.75C2.95653 11.75 3.27447 11.8817 3.50889 12.1161C3.74331 12.3505 3.87501 12.6684 3.87501 13ZM2.62501 4.24996C2.37778 4.24996 2.1361 4.17665 1.93054 4.0393C1.72498 3.90195 1.56477 3.70672 1.47016 3.47832C1.37555 3.24991 1.35079 2.99858 1.39902 2.7561C1.44726 2.51362 1.56631 2.29089 1.74112 2.11608C1.91594 1.94126 2.13867 1.82221 2.38114 1.77398C2.62362 1.72575 2.87495 1.7505 3.10336 1.84511C3.33177 1.93972 3.52699 2.09994 3.66434 2.3055C3.80169 2.51106 3.87501 2.75274 3.87501 2.99996C3.87501 3.33148 3.74331 3.64942 3.50889 3.88385C3.27447 4.11827 2.95653 4.24996 2.62501 4.24996ZM13.25 10.5781V7.67809C13.2515 7.10333 13.139 6.53398 12.9191 6.00296C12.6991 5.47194 12.3761 4.98977 11.9688 4.58434L9.7586 2.37496H12C12.1658 2.37496 12.3247 2.30911 12.4419 2.1919C12.5592 2.07469 12.625 1.91572 12.625 1.74996C12.625 1.5842 12.5592 1.42523 12.4419 1.30802C12.3247 1.19081 12.1658 1.12496 12 1.12496H8.25001C8.08425 1.12496 7.92527 1.19081 7.80806 1.30802C7.69085 1.42523 7.62501 1.5842 7.62501 1.74996V5.49996C7.62501 5.66572 7.69085 5.82469 7.80806 5.9419C7.92527 6.05911 8.08425 6.12496 8.25001 6.12496C8.41577 6.12496 8.57474 6.05911 8.69195 5.9419C8.80916 5.82469 8.87501 5.66572 8.87501 5.49996V3.25856L11.0844 5.46871C11.3756 5.75808 11.6065 6.10237 11.7636 6.48162C11.9208 6.86088 12.0012 7.26755 12 7.67809V10.5781C11.4108 10.7302 10.8974 11.092 10.5559 11.5956C10.2144 12.0992 10.0683 12.7101 10.1449 13.3137C10.2216 13.9173 10.5158 14.4723 10.9724 14.8745C11.4289 15.2768 12.0165 15.4987 12.625 15.4987C13.2335 15.4987 13.8211 15.2768 14.2777 14.8745C14.7342 14.4723 15.0284 13.9173 15.1051 13.3137C15.1818 12.7101 15.0356 12.0992 14.6941 11.5956C14.3526 11.092 13.8392 10.7302 13.25 10.5781ZM12.625 14.25C12.3778 14.25 12.1361 14.1767 11.9305 14.0393C11.725 13.9019 11.5648 13.7067 11.4702 13.4783C11.3755 13.2499 11.3508 12.9986 11.399 12.7561C11.4473 12.5136 11.5663 12.2909 11.7411 12.1161C11.9159 11.9413 12.1387 11.8222 12.3811 11.774C12.6236 11.7257 12.875 11.7505 13.1034 11.8451C13.3318 11.9397 13.527 12.0999 13.6643 12.3055C13.8017 12.5111 13.875 12.7527 13.875 13C13.875 13.3315 13.7433 13.6494 13.5089 13.8838C13.2745 14.1183 12.9565 14.25 12.625 14.25Z" fill="black" fill-opacity="0.2"/>
<path d="M5.12501 2.99996C5.12477 2.53243 4.99344 2.07433 4.74592 1.6777C4.49841 1.28106 4.14463 0.961778 3.72476 0.756109C3.3049 0.550441 2.83578 0.466629 2.37067 0.514193C1.90557 0.561756 1.46312 0.738788 1.09358 1.02518C0.724034 1.31158 0.442205 1.69586 0.280097 2.13439C0.117988 2.57292 0.0820973 3.04811 0.1765 3.50601C0.270902 3.96392 0.491815 4.38617 0.814149 4.72482C1.13648 5.06347 1.54732 5.30495 2.00001 5.42184V10.5781C1.41084 10.7302 0.897388 11.092 0.55588 11.5956C0.214372 12.0992 0.0682603 12.7101 0.144932 13.3137C0.221603 13.9173 0.515794 14.4723 0.972361 14.8745C1.42893 15.2768 2.01652 15.4987 2.62501 15.4987C3.23349 15.4987 3.82109 15.2768 4.27765 14.8745C4.73422 14.4723 5.02841 13.9173 5.10508 13.3137C5.18175 12.7101 5.03564 12.0992 4.69413 11.5956C4.35262 11.092 3.83917 10.7302 3.25001 10.5781V5.42184C3.78646 5.2825 4.26154 4.96916 4.60084 4.5309C4.94013 4.09264 5.12448 3.55421 5.12501 2.99996ZM3.87501 13C3.87501 13.2472 3.80169 13.4889 3.66434 13.6944C3.52699 13.9 3.33177 14.0602 3.10336 14.1548C2.87495 14.2494 2.62362 14.2742 2.38114 14.2259C2.13867 14.1777 1.91594 14.0587 1.74112 13.8838C1.56631 13.709 1.44726 13.4863 1.39902 13.2438C1.35079 13.0013 1.37555 12.75 1.47016 12.5216C1.56477 12.2932 1.72498 12.098 1.93054 11.9606C2.1361 11.8233 2.37778 11.75 2.62501 11.75C2.95653 11.75 3.27447 11.8817 3.50889 12.1161C3.74331 12.3505 3.87501 12.6684 3.87501 13ZM2.62501 4.24996C2.37778 4.24996 2.1361 4.17665 1.93054 4.0393C1.72498 3.90195 1.56477 3.70672 1.47016 3.47832C1.37555 3.24991 1.35079 2.99858 1.39902 2.7561C1.44726 2.51362 1.56631 2.29089 1.74112 2.11608C1.91594 1.94126 2.13867 1.82221 2.38114 1.77398C2.62362 1.72575 2.87495 1.7505 3.10336 1.84511C3.33177 1.93972 3.52699 2.09994 3.66434 2.3055C3.80169 2.51106 3.87501 2.75274 3.87501 2.99996C3.87501 3.33148 3.74331 3.64942 3.50889 3.88385C3.27447 4.11827 2.95653 4.24996 2.62501 4.24996ZM13.25 10.5781V7.67809C13.2515 7.10333 13.139 6.53398 12.9191 6.00296C12.6991 5.47194 12.3761 4.98977 11.9688 4.58434L9.7586 2.37496H12C12.1658 2.37496 12.3247 2.30911 12.4419 2.1919C12.5592 2.07469 12.625 1.91572 12.625 1.74996C12.625 1.5842 12.5592 1.42523 12.4419 1.30802C12.3247 1.19081 12.1658 1.12496 12 1.12496H8.25001C8.08425 1.12496 7.92527 1.19081 7.80806 1.30802C7.69085 1.42523 7.62501 1.5842 7.62501 1.74996V5.49996C7.62501 5.66572 7.69085 5.82469 7.80806 5.9419C7.92527 6.05911 8.08425 6.12496 8.25001 6.12496C8.41577 6.12496 8.57474 6.05911 8.69195 5.9419C8.80916 5.82469 8.87501 5.66572 8.87501 5.49996V3.25856L11.0844 5.46871C11.3756 5.75808 11.6065 6.10237 11.7636 6.48162C11.9208 6.86088 12.0012 7.26755 12 7.67809V10.5781C11.4108 10.7302 10.8974 11.092 10.5559 11.5956C10.2144 12.0992 10.0683 12.7101 10.1449 13.3137C10.2216 13.9173 10.5158 14.4723 10.9724 14.8745C11.4289 15.2768 12.0165 15.4987 12.625 15.4987C13.2335 15.4987 13.8211 15.2768 14.2777 14.8745C14.7342 14.4723 15.0284 13.9173 15.1051 13.3137C15.1818 12.7101 15.0356 12.0992 14.6941 11.5956C14.3526 11.092 13.8392 10.7302 13.25 10.5781ZM12.625 14.25C12.3778 14.25 12.1361 14.1767 11.9305 14.0393C11.725 13.9019 11.5648 13.7067 11.4702 13.4783C11.3755 13.2499 11.3508 12.9986 11.399 12.7561C11.4473 12.5136 11.5663 12.2909 11.7411 12.1161C11.9159 11.9413 12.1387 11.8222 12.3811 11.774C12.6236 11.7257 12.875 11.7505 13.1034 11.8451C13.3318 11.9397 13.527 12.0999 13.6643 12.3055C13.8017 12.5111 13.875 12.7527 13.875 13C13.875 13.3315 13.7433 13.6494 13.5089 13.8838C13.2745 14.1183 12.9565 14.25 12.625 14.25Z" fill="black" fill-opacity="0.2"/>
</svg>
