<svg width="18" height="16" viewBox="0 0 18 16" fill="none" xmlns="http://www.w3.org/2000/svg">
<path d="M2.33329 0.5C1.40829 0.5 0.666626 1.24167 0.666626 2.16667V5.5C0.666626 6.425 1.40829 7.16667 2.33329 7.16667H5.66663C6.59163 7.16667 7.33329 6.425 7.33329 5.5V2.16667C7.33329 1.24167 6.59163 0.5 5.66663 0.5M5.83329 1.75L6.71663 2.625L3.39163 5.91667L1.28329 3.79167L2.17496 2.91667L3.39996 4.15833M2.33329 8.83333C1.40829 8.83333 0.666626 9.575 0.666626 10.5V13.8333C0.666626 14.7583 1.40829 15.5 2.33329 15.5H5.66663C6.59163 15.5 7.33329 14.7583 7.33329 13.8333V10.5C7.33329 9.575 6.59163 8.83333 5.66663 8.83333M2.33329 10.5H5.66663V13.8333H2.33329M8.99996 2.16667H17.3333V3.83333H8.99996M8.99996 13.8333V12.1667H17.3333V13.8333M8.99996 7.16667H17.3333V8.83333H8.99996V7.16667Z" fill="#333333"/>
<path d="M2.33329 0.5C1.40829 0.5 0.666626 1.24167 0.666626 2.16667V5.5C0.666626 6.425 1.40829 7.16667 2.33329 7.16667H5.66663C6.59163 7.16667 7.33329 6.425 7.33329 5.5V2.16667C7.33329 1.24167 6.59163 0.5 5.66663 0.5M5.83329 1.75L6.71663 2.625L3.39163 5.91667L1.28329 3.79167L2.17496 2.91667L3.39996 4.15833M2.33329 8.83333C1.40829 8.83333 0.666626 9.575 0.666626 10.5V13.8333C0.666626 14.7583 1.40829 15.5 2.33329 15.5H5.66663C6.59163 15.5 7.33329 14.7583 7.33329 13.8333V10.5C7.33329 9.575 6.59163 8.83333 5.66663 8.83333M2.33329 10.5H5.66663V13.8333H2.33329M8.99996 2.16667H17.3333V3.83333H8.99996M8.99996 13.8333V12.1667H17.3333V13.8333M8.99996 7.16667H17.3333V8.83333H8.99996V7.16667Z" fill="black" fill-opacity="0.2"/>
<path d="M2.33329 0.5C1.40829 0.5 0.666626 1.24167 0.666626 2.16667V5.5C0.666626 6.425 1.40829 7.16667 2.33329 7.16667H5.66663C6.59163 7.16667 7.33329 6.425 7.33329 5.5V2.16667C7.33329 1.24167 6.59163 0.5 5.66663 0.5M5.83329 1.75L6.71663 2.625L3.39163 5.91667L1.28329 3.79167L2.17496 2.91667L3.39996 4.15833M2.33329 8.83333C1.40829 8.83333 0.666626 9.575 0.666626 10.5V13.8333C0.666626 14.7583 1.40829 15.5 2.33329 15.5H5.66663C6.59163 15.5 7.33329 14.7583 7.33329 13.8333V10.5C7.33329 9.575 6.59163 8.83333 5.66663 8.83333M2.33329 10.5H5.66663V13.8333H2.33329M8.99996 2.16667H17.3333V3.83333H8.99996M8.99996 13.8333V12.1667H17.3333V13.8333M8.99996 7.16667H17.3333V8.83333H8.99996V7.16667Z" fill="black" fill-opacity="0.2"/>
<path d="M2.33329 0.5C1.40829 0.5 0.666626 1.24167 0.666626 2.16667V5.5C0.666626 6.425 1.40829 7.16667 2.33329 7.16667H5.66663C6.59163 7.16667 7.33329 6.425 7.33329 5.5V2.16667C7.33329 1.24167 6.59163 0.5 5.66663 0.5M5.83329 1.75L6.71663 2.625L3.39163 5.91667L1.28329 3.79167L2.17496 2.91667L3.39996 4.15833M2.33329 8.83333C1.40829 8.83333 0.666626 9.575 0.666626 10.5V13.8333C0.666626 14.7583 1.40829 15.5 2.33329 15.5H5.66663C6.59163 15.5 7.33329 14.7583 7.33329 13.8333V10.5C7.33329 9.575 6.59163 8.83333 5.66663 8.83333M2.33329 10.5H5.66663V13.8333H2.33329M8.99996 2.16667H17.3333V3.83333H8.99996M8.99996 13.8333V12.1667H17.3333V13.8333M8.99996 7.16667H17.3333V8.83333H8.99996V7.16667Z" fill="black" fill-opacity="0.2"/>
<path d="M2.33329 0.5C1.40829 0.5 0.666626 1.24167 0.666626 2.16667V5.5C0.666626 6.425 1.40829 7.16667 2.33329 7.16667H5.66663C6.59163 7.16667 7.33329 6.425 7.33329 5.5V2.16667C7.33329 1.24167 6.59163 0.5 5.66663 0.5M5.83329 1.75L6.71663 2.625L3.39163 5.91667L1.28329 3.79167L2.17496 2.91667L3.39996 4.15833M2.33329 8.83333C1.40829 8.83333 0.666626 9.575 0.666626 10.5V13.8333C0.666626 14.7583 1.40829 15.5 2.33329 15.5H5.66663C6.59163 15.5 7.33329 14.7583 7.33329 13.8333V10.5C7.33329 9.575 6.59163 8.83333 5.66663 8.83333M2.33329 10.5H5.66663V13.8333H2.33329M8.99996 2.16667H17.3333V3.83333H8.99996M8.99996 13.8333V12.1667H17.3333V13.8333M8.99996 7.16667H17.3333V8.83333H8.99996V7.16667Z" fill="black" fill-opacity="0.2"/>
<path d="M2.33329 0.5C1.40829 0.5 0.666626 1.24167 0.666626 2.16667V5.5C0.666626 6.425 1.40829 7.16667 2.33329 7.16667H5.66663C6.59163 7.16667 7.33329 6.425 7.33329 5.5V2.16667C7.33329 1.24167 6.59163 0.5 5.66663 0.5M5.83329 1.75L6.71663 2.625L3.39163 5.91667L1.28329 3.79167L2.17496 2.91667L3.39996 4.15833M2.33329 8.83333C1.40829 8.83333 0.666626 9.575 0.666626 10.5V13.8333C0.666626 14.7583 1.40829 15.5 2.33329 15.5H5.66663C6.59163 15.5 7.33329 14.7583 7.33329 13.8333V10.5C7.33329 9.575 6.59163 8.83333 5.66663 8.83333M2.33329 10.5H5.66663V13.8333H2.33329M8.99996 2.16667H17.3333V3.83333H8.99996M8.99996 13.8333V12.1667H17.3333V13.8333M8.99996 7.16667H17.3333V8.83333H8.99996V7.16667Z" fill="black" fill-opacity="0.2"/>
<path d="M2.33329 0.5C1.40829 0.5 0.666626 1.24167 0.666626 2.16667V5.5C0.666626 6.425 1.40829 7.16667 2.33329 7.16667H5.66663C6.59163 7.16667 7.33329 6.425 7.33329 5.5V2.16667C7.33329 1.24167 6.59163 0.5 5.66663 0.5M5.83329 1.75L6.71663 2.625L3.39163 5.91667L1.28329 3.79167L2.17496 2.91667L3.39996 4.15833M2.33329 8.83333C1.40829 8.83333 0.666626 9.575 0.666626 10.5V13.8333C0.666626 14.7583 1.40829 15.5 2.33329 15.5H5.66663C6.59163 15.5 7.33329 14.7583 7.33329 13.8333V10.5C7.33329 9.575 6.59163 8.83333 5.66663 8.83333M2.33329 10.5H5.66663V13.8333H2.33329M8.99996 2.16667H17.3333V3.83333H8.99996M8.99996 13.8333V12.1667H17.3333V13.8333M8.99996 7.16667H17.3333V8.83333H8.99996V7.16667Z" fill="black" fill-opacity="0.2"/>
</svg>
