<svg width="20" height="20" viewBox="0 0 20 20" fill="none" xmlns="http://www.w3.org/2000/svg">
<path d="M13.3334 12.5H7.50004V10.8333H13.3334V12.5ZM15.8334 9.16667H7.50004V7.5H15.8334V9.16667ZM15.8334 5.83334H7.50004V4.16667H15.8334V5.83334ZM2.50004 4.16667V17.5H15.8334V19.1667H2.50004C2.05801 19.1667 1.63409 18.9911 1.32153 18.6785C1.00897 18.366 0.833374 17.942 0.833374 17.5V4.16667H2.50004ZM17.5 0.833336C17.9421 0.833336 18.366 1.00893 18.6786 1.32149C18.9911 1.63405 19.1667 2.05797 19.1667 2.5V14.1667C19.1667 15.0917 18.425 15.8333 17.5 15.8333H5.83337C5.39135 15.8333 4.96742 15.6577 4.65486 15.3452C4.3423 15.0326 4.16671 14.6087 4.16671 14.1667V2.5C4.16671 1.575 4.90837 0.833336 5.83337 0.833336H17.5ZM5.83337 2.5V14.1667H17.5V2.5H5.83337Z" fill="#333333"/>
<path d="M13.3334 12.5H7.50004V10.8333H13.3334V12.5ZM15.8334 9.16667H7.50004V7.5H15.8334V9.16667ZM15.8334 5.83334H7.50004V4.16667H15.8334V5.83334ZM2.50004 4.16667V17.5H15.8334V19.1667H2.50004C2.05801 19.1667 1.63409 18.9911 1.32153 18.6785C1.00897 18.366 0.833374 17.942 0.833374 17.5V4.16667H2.50004ZM17.5 0.833336C17.9421 0.833336 18.366 1.00893 18.6786 1.32149C18.9911 1.63405 19.1667 2.05797 19.1667 2.5V14.1667C19.1667 15.0917 18.425 15.8333 17.5 15.8333H5.83337C5.39135 15.8333 4.96742 15.6577 4.65486 15.3452C4.3423 15.0326 4.16671 14.6087 4.16671 14.1667V2.5C4.16671 1.575 4.90837 0.833336 5.83337 0.833336H17.5ZM5.83337 2.5V14.1667H17.5V2.5H5.83337Z" fill="black" fill-opacity="0.2"/>
<path d="M13.3334 12.5H7.50004V10.8333H13.3334V12.5ZM15.8334 9.16667H7.50004V7.5H15.8334V9.16667ZM15.8334 5.83334H7.50004V4.16667H15.8334V5.83334ZM2.50004 4.16667V17.5H15.8334V19.1667H2.50004C2.05801 19.1667 1.63409 18.9911 1.32153 18.6785C1.00897 18.366 0.833374 17.942 0.833374 17.5V4.16667H2.50004ZM17.5 0.833336C17.9421 0.833336 18.366 1.00893 18.6786 1.32149C18.9911 1.63405 19.1667 2.05797 19.1667 2.5V14.1667C19.1667 15.0917 18.425 15.8333 17.5 15.8333H5.83337C5.39135 15.8333 4.96742 15.6577 4.65486 15.3452C4.3423 15.0326 4.16671 14.6087 4.16671 14.1667V2.5C4.16671 1.575 4.90837 0.833336 5.83337 0.833336H17.5ZM5.83337 2.5V14.1667H17.5V2.5H5.83337Z" fill="black" fill-opacity="0.2"/>
<path d="M13.3334 12.5H7.50004V10.8333H13.3334V12.5ZM15.8334 9.16667H7.50004V7.5H15.8334V9.16667ZM15.8334 5.83334H7.50004V4.16667H15.8334V5.83334ZM2.50004 4.16667V17.5H15.8334V19.1667H2.50004C2.05801 19.1667 1.63409 18.9911 1.32153 18.6785C1.00897 18.366 0.833374 17.942 0.833374 17.5V4.16667H2.50004ZM17.5 0.833336C17.9421 0.833336 18.366 1.00893 18.6786 1.32149C18.9911 1.63405 19.1667 2.05797 19.1667 2.5V14.1667C19.1667 15.0917 18.425 15.8333 17.5 15.8333H5.83337C5.39135 15.8333 4.96742 15.6577 4.65486 15.3452C4.3423 15.0326 4.16671 14.6087 4.16671 14.1667V2.5C4.16671 1.575 4.90837 0.833336 5.83337 0.833336H17.5ZM5.83337 2.5V14.1667H17.5V2.5H5.83337Z" fill="black" fill-opacity="0.2"/>
<path d="M13.3334 12.5H7.50004V10.8333H13.3334V12.5ZM15.8334 9.16667H7.50004V7.5H15.8334V9.16667ZM15.8334 5.83334H7.50004V4.16667H15.8334V5.83334ZM2.50004 4.16667V17.5H15.8334V19.1667H2.50004C2.05801 19.1667 1.63409 18.9911 1.32153 18.6785C1.00897 18.366 0.833374 17.942 0.833374 17.5V4.16667H2.50004ZM17.5 0.833336C17.9421 0.833336 18.366 1.00893 18.6786 1.32149C18.9911 1.63405 19.1667 2.05797 19.1667 2.5V14.1667C19.1667 15.0917 18.425 15.8333 17.5 15.8333H5.83337C5.39135 15.8333 4.96742 15.6577 4.65486 15.3452C4.3423 15.0326 4.16671 14.6087 4.16671 14.1667V2.5C4.16671 1.575 4.90837 0.833336 5.83337 0.833336H17.5ZM5.83337 2.5V14.1667H17.5V2.5H5.83337Z" fill="black" fill-opacity="0.2"/>
<path d="M13.3334 12.5H7.50004V10.8333H13.3334V12.5ZM15.8334 9.16667H7.50004V7.5H15.8334V9.16667ZM15.8334 5.83334H7.50004V4.16667H15.8334V5.83334ZM2.50004 4.16667V17.5H15.8334V19.1667H2.50004C2.05801 19.1667 1.63409 18.9911 1.32153 18.6785C1.00897 18.366 0.833374 17.942 0.833374 17.5V4.16667H2.50004ZM17.5 0.833336C17.9421 0.833336 18.366 1.00893 18.6786 1.32149C18.9911 1.63405 19.1667 2.05797 19.1667 2.5V14.1667C19.1667 15.0917 18.425 15.8333 17.5 15.8333H5.83337C5.39135 15.8333 4.96742 15.6577 4.65486 15.3452C4.3423 15.0326 4.16671 14.6087 4.16671 14.1667V2.5C4.16671 1.575 4.90837 0.833336 5.83337 0.833336H17.5ZM5.83337 2.5V14.1667H17.5V2.5H5.83337Z" fill="black" fill-opacity="0.2"/>
<path d="M13.3334 12.5H7.50004V10.8333H13.3334V12.5ZM15.8334 9.16667H7.50004V7.5H15.8334V9.16667ZM15.8334 5.83334H7.50004V4.16667H15.8334V5.83334ZM2.50004 4.16667V17.5H15.8334V19.1667H2.50004C2.05801 19.1667 1.63409 18.9911 1.32153 18.6785C1.00897 18.366 0.833374 17.942 0.833374 17.5V4.16667H2.50004ZM17.5 0.833336C17.9421 0.833336 18.366 1.00893 18.6786 1.32149C18.9911 1.63405 19.1667 2.05797 19.1667 2.5V14.1667C19.1667 15.0917 18.425 15.8333 17.5 15.8333H5.83337C5.39135 15.8333 4.96742 15.6577 4.65486 15.3452C4.3423 15.0326 4.16671 14.6087 4.16671 14.1667V2.5C4.16671 1.575 4.90837 0.833336 5.83337 0.833336H17.5ZM5.83337 2.5V14.1667H17.5V2.5H5.83337Z" fill="black" fill-opacity="0.2"/>
</svg>
