<svg width="20" height="19" viewBox="0 0 20 19" fill="none" xmlns="http://www.w3.org/2000/svg">
<path d="M2 16V2H9V9H16V10C16.7 10 17.37 10.13 18 10.35V6L12 0H2C0.89 0 0 0.89 0 2V16C0 17.1 0.89 18 2 18H10.35C10.13 17.37 10 16.7 10 16H2ZM11 1.5L16.5 7H11V1.5ZM19.5 14.25L14.75 19L12 16L13.16 14.84L14.75 16.43L18.34 12.84L19.5 14.25Z" fill="#333333"/>
<path d="M2 16V2H9V9H16V10C16.7 10 17.37 10.13 18 10.35V6L12 0H2C0.89 0 0 0.89 0 2V16C0 17.1 0.89 18 2 18H10.35C10.13 17.37 10 16.7 10 16H2ZM11 1.5L16.5 7H11V1.5ZM19.5 14.25L14.75 19L12 16L13.16 14.84L14.75 16.43L18.34 12.84L19.5 14.25Z" fill="black" fill-opacity="0.2"/>
<path d="M2 16V2H9V9H16V10C16.7 10 17.37 10.13 18 10.35V6L12 0H2C0.89 0 0 0.89 0 2V16C0 17.1 0.89 18 2 18H10.35C10.13 17.37 10 16.7 10 16H2ZM11 1.5L16.5 7H11V1.5ZM19.5 14.25L14.75 19L12 16L13.16 14.84L14.75 16.43L18.34 12.84L19.5 14.25Z" fill="black" fill-opacity="0.2"/>
<path d="M2 16V2H9V9H16V10C16.7 10 17.37 10.13 18 10.35V6L12 0H2C0.89 0 0 0.89 0 2V16C0 17.1 0.89 18 2 18H10.35C10.13 17.37 10 16.7 10 16H2ZM11 1.5L16.5 7H11V1.5ZM19.5 14.25L14.75 19L12 16L13.16 14.84L14.75 16.43L18.34 12.84L19.5 14.25Z" fill="black" fill-opacity="0.2"/>
<path d="M2 16V2H9V9H16V10C16.7 10 17.37 10.13 18 10.35V6L12 0H2C0.89 0 0 0.89 0 2V16C0 17.1 0.89 18 2 18H10.35C10.13 17.37 10 16.7 10 16H2ZM11 1.5L16.5 7H11V1.5ZM19.5 14.25L14.75 19L12 16L13.16 14.84L14.75 16.43L18.34 12.84L19.5 14.25Z" fill="black" fill-opacity="0.2"/>
<path d="M2 16V2H9V9H16V10C16.7 10 17.37 10.13 18 10.35V6L12 0H2C0.89 0 0 0.89 0 2V16C0 17.1 0.89 18 2 18H10.35C10.13 17.37 10 16.7 10 16H2ZM11 1.5L16.5 7H11V1.5ZM19.5 14.25L14.75 19L12 16L13.16 14.84L14.75 16.43L18.34 12.84L19.5 14.25Z" fill="black" fill-opacity="0.2"/>
<path d="M2 16V2H9V9H16V10C16.7 10 17.37 10.13 18 10.35V6L12 0H2C0.89 0 0 0.89 0 2V16C0 17.1 0.89 18 2 18H10.35C10.13 17.37 10 16.7 10 16H2ZM11 1.5L16.5 7H11V1.5ZM19.5 14.25L14.75 19L12 16L13.16 14.84L14.75 16.43L18.34 12.84L19.5 14.25Z" fill="black" fill-opacity="0.2"/>
</svg>
