<svg width="18" height="20" viewBox="0 0 18 20" fill="none" xmlns="http://www.w3.org/2000/svg">
<path d="M6.91672 5.83333C7.60839 5.83333 8.16672 6.39167 8.16672 7.08333C8.16672 7.775 7.60839 8.33333 6.91672 8.33333C6.22506 8.33333 5.66672 7.775 5.66672 7.08333C5.66672 6.39167 6.22506 5.83333 6.91672 5.83333ZM11.0834 11.6667C11.7751 11.6667 12.3334 12.225 12.3334 12.9167C12.3334 13.6083 11.7751 14.1667 11.0834 14.1667C10.3917 14.1667 9.83339 13.6083 9.83339 12.9167C9.83339 12.225 10.3917 11.6667 11.0834 11.6667ZM6.00839 14.1667L4.83339 12.9917L11.9917 5.83333L13.1667 7.00833L6.00839 14.1667ZM14.5417 2.375L15.0501 5.59167L17.9751 7.08333L16.5001 10L17.9834 12.9167L15.0334 14.4083L14.5251 17.625L11.2834 17.1167L8.97506 19.425L6.65839 17.0833L3.44172 17.6167L2.92506 14.375L0.0167236 12.8917L1.50006 9.975L0.025057 7.08333L2.95006 5.575L3.45839 2.39167L6.68339 2.91667L9.00006 0.579166L11.3001 2.88333L14.5417 2.375ZM15.7501 7.80833L13.5834 6.66667L13.1667 4.25833L10.7501 4.60833L9.00006 2.91667L7.25006 4.60833L4.83339 4.25833L4.41672 6.66667L2.25006 7.80833L3.33339 10L2.25006 12.1917L4.41672 13.3333L4.83339 15.7417L7.25006 15.3917L9.00006 17.0833L10.7501 15.3917L13.1667 15.7417L13.5834 13.3333L15.7501 12.1917L14.6667 10L15.7501 7.80833Z" fill="#333333"/>
<path d="M6.91672 5.83333C7.60839 5.83333 8.16672 6.39167 8.16672 7.08333C8.16672 7.775 7.60839 8.33333 6.91672 8.33333C6.22506 8.33333 5.66672 7.775 5.66672 7.08333C5.66672 6.39167 6.22506 5.83333 6.91672 5.83333ZM11.0834 11.6667C11.7751 11.6667 12.3334 12.225 12.3334 12.9167C12.3334 13.6083 11.7751 14.1667 11.0834 14.1667C10.3917 14.1667 9.83339 13.6083 9.83339 12.9167C9.83339 12.225 10.3917 11.6667 11.0834 11.6667ZM6.00839 14.1667L4.83339 12.9917L11.9917 5.83333L13.1667 7.00833L6.00839 14.1667ZM14.5417 2.375L15.0501 5.59167L17.9751 7.08333L16.5001 10L17.9834 12.9167L15.0334 14.4083L14.5251 17.625L11.2834 17.1167L8.97506 19.425L6.65839 17.0833L3.44172 17.6167L2.92506 14.375L0.0167236 12.8917L1.50006 9.975L0.025057 7.08333L2.95006 5.575L3.45839 2.39167L6.68339 2.91667L9.00006 0.579166L11.3001 2.88333L14.5417 2.375ZM15.7501 7.80833L13.5834 6.66667L13.1667 4.25833L10.7501 4.60833L9.00006 2.91667L7.25006 4.60833L4.83339 4.25833L4.41672 6.66667L2.25006 7.80833L3.33339 10L2.25006 12.1917L4.41672 13.3333L4.83339 15.7417L7.25006 15.3917L9.00006 17.0833L10.7501 15.3917L13.1667 15.7417L13.5834 13.3333L15.7501 12.1917L14.6667 10L15.7501 7.80833Z" fill="black" fill-opacity="0.2"/>
<path d="M6.91672 5.83333C7.60839 5.83333 8.16672 6.39167 8.16672 7.08333C8.16672 7.775 7.60839 8.33333 6.91672 8.33333C6.22506 8.33333 5.66672 7.775 5.66672 7.08333C5.66672 6.39167 6.22506 5.83333 6.91672 5.83333ZM11.0834 11.6667C11.7751 11.6667 12.3334 12.225 12.3334 12.9167C12.3334 13.6083 11.7751 14.1667 11.0834 14.1667C10.3917 14.1667 9.83339 13.6083 9.83339 12.9167C9.83339 12.225 10.3917 11.6667 11.0834 11.6667ZM6.00839 14.1667L4.83339 12.9917L11.9917 5.83333L13.1667 7.00833L6.00839 14.1667ZM14.5417 2.375L15.0501 5.59167L17.9751 7.08333L16.5001 10L17.9834 12.9167L15.0334 14.4083L14.5251 17.625L11.2834 17.1167L8.97506 19.425L6.65839 17.0833L3.44172 17.6167L2.92506 14.375L0.0167236 12.8917L1.50006 9.975L0.025057 7.08333L2.95006 5.575L3.45839 2.39167L6.68339 2.91667L9.00006 0.579166L11.3001 2.88333L14.5417 2.375ZM15.7501 7.80833L13.5834 6.66667L13.1667 4.25833L10.7501 4.60833L9.00006 2.91667L7.25006 4.60833L4.83339 4.25833L4.41672 6.66667L2.25006 7.80833L3.33339 10L2.25006 12.1917L4.41672 13.3333L4.83339 15.7417L7.25006 15.3917L9.00006 17.0833L10.7501 15.3917L13.1667 15.7417L13.5834 13.3333L15.7501 12.1917L14.6667 10L15.7501 7.80833Z" fill="black" fill-opacity="0.2"/>
<path d="M6.91672 5.83333C7.60839 5.83333 8.16672 6.39167 8.16672 7.08333C8.16672 7.775 7.60839 8.33333 6.91672 8.33333C6.22506 8.33333 5.66672 7.775 5.66672 7.08333C5.66672 6.39167 6.22506 5.83333 6.91672 5.83333ZM11.0834 11.6667C11.7751 11.6667 12.3334 12.225 12.3334 12.9167C12.3334 13.6083 11.7751 14.1667 11.0834 14.1667C10.3917 14.1667 9.83339 13.6083 9.83339 12.9167C9.83339 12.225 10.3917 11.6667 11.0834 11.6667ZM6.00839 14.1667L4.83339 12.9917L11.9917 5.83333L13.1667 7.00833L6.00839 14.1667ZM14.5417 2.375L15.0501 5.59167L17.9751 7.08333L16.5001 10L17.9834 12.9167L15.0334 14.4083L14.5251 17.625L11.2834 17.1167L8.97506 19.425L6.65839 17.0833L3.44172 17.6167L2.92506 14.375L0.0167236 12.8917L1.50006 9.975L0.025057 7.08333L2.95006 5.575L3.45839 2.39167L6.68339 2.91667L9.00006 0.579166L11.3001 2.88333L14.5417 2.375ZM15.7501 7.80833L13.5834 6.66667L13.1667 4.25833L10.7501 4.60833L9.00006 2.91667L7.25006 4.60833L4.83339 4.25833L4.41672 6.66667L2.25006 7.80833L3.33339 10L2.25006 12.1917L4.41672 13.3333L4.83339 15.7417L7.25006 15.3917L9.00006 17.0833L10.7501 15.3917L13.1667 15.7417L13.5834 13.3333L15.7501 12.1917L14.6667 10L15.7501 7.80833Z" fill="black" fill-opacity="0.2"/>
<path d="M6.91672 5.83333C7.60839 5.83333 8.16672 6.39167 8.16672 7.08333C8.16672 7.775 7.60839 8.33333 6.91672 8.33333C6.22506 8.33333 5.66672 7.775 5.66672 7.08333C5.66672 6.39167 6.22506 5.83333 6.91672 5.83333ZM11.0834 11.6667C11.7751 11.6667 12.3334 12.225 12.3334 12.9167C12.3334 13.6083 11.7751 14.1667 11.0834 14.1667C10.3917 14.1667 9.83339 13.6083 9.83339 12.9167C9.83339 12.225 10.3917 11.6667 11.0834 11.6667ZM6.00839 14.1667L4.83339 12.9917L11.9917 5.83333L13.1667 7.00833L6.00839 14.1667ZM14.5417 2.375L15.0501 5.59167L17.9751 7.08333L16.5001 10L17.9834 12.9167L15.0334 14.4083L14.5251 17.625L11.2834 17.1167L8.97506 19.425L6.65839 17.0833L3.44172 17.6167L2.92506 14.375L0.0167236 12.8917L1.50006 9.975L0.025057 7.08333L2.95006 5.575L3.45839 2.39167L6.68339 2.91667L9.00006 0.579166L11.3001 2.88333L14.5417 2.375ZM15.7501 7.80833L13.5834 6.66667L13.1667 4.25833L10.7501 4.60833L9.00006 2.91667L7.25006 4.60833L4.83339 4.25833L4.41672 6.66667L2.25006 7.80833L3.33339 10L2.25006 12.1917L4.41672 13.3333L4.83339 15.7417L7.25006 15.3917L9.00006 17.0833L10.7501 15.3917L13.1667 15.7417L13.5834 13.3333L15.7501 12.1917L14.6667 10L15.7501 7.80833Z" fill="black" fill-opacity="0.2"/>
<path d="M6.91672 5.83333C7.60839 5.83333 8.16672 6.39167 8.16672 7.08333C8.16672 7.775 7.60839 8.33333 6.91672 8.33333C6.22506 8.33333 5.66672 7.775 5.66672 7.08333C5.66672 6.39167 6.22506 5.83333 6.91672 5.83333ZM11.0834 11.6667C11.7751 11.6667 12.3334 12.225 12.3334 12.9167C12.3334 13.6083 11.7751 14.1667 11.0834 14.1667C10.3917 14.1667 9.83339 13.6083 9.83339 12.9167C9.83339 12.225 10.3917 11.6667 11.0834 11.6667ZM6.00839 14.1667L4.83339 12.9917L11.9917 5.83333L13.1667 7.00833L6.00839 14.1667ZM14.5417 2.375L15.0501 5.59167L17.9751 7.08333L16.5001 10L17.9834 12.9167L15.0334 14.4083L14.5251 17.625L11.2834 17.1167L8.97506 19.425L6.65839 17.0833L3.44172 17.6167L2.92506 14.375L0.0167236 12.8917L1.50006 9.975L0.025057 7.08333L2.95006 5.575L3.45839 2.39167L6.68339 2.91667L9.00006 0.579166L11.3001 2.88333L14.5417 2.375ZM15.7501 7.80833L13.5834 6.66667L13.1667 4.25833L10.7501 4.60833L9.00006 2.91667L7.25006 4.60833L4.83339 4.25833L4.41672 6.66667L2.25006 7.80833L3.33339 10L2.25006 12.1917L4.41672 13.3333L4.83339 15.7417L7.25006 15.3917L9.00006 17.0833L10.7501 15.3917L13.1667 15.7417L13.5834 13.3333L15.7501 12.1917L14.6667 10L15.7501 7.80833Z" fill="black" fill-opacity="0.2"/>
<path d="M6.91672 5.83333C7.60839 5.83333 8.16672 6.39167 8.16672 7.08333C8.16672 7.775 7.60839 8.33333 6.91672 8.33333C6.22506 8.33333 5.66672 7.775 5.66672 7.08333C5.66672 6.39167 6.22506 5.83333 6.91672 5.83333ZM11.0834 11.6667C11.7751 11.6667 12.3334 12.225 12.3334 12.9167C12.3334 13.6083 11.7751 14.1667 11.0834 14.1667C10.3917 14.1667 9.83339 13.6083 9.83339 12.9167C9.83339 12.225 10.3917 11.6667 11.0834 11.6667ZM6.00839 14.1667L4.83339 12.9917L11.9917 5.83333L13.1667 7.00833L6.00839 14.1667ZM14.5417 2.375L15.0501 5.59167L17.9751 7.08333L16.5001 10L17.9834 12.9167L15.0334 14.4083L14.5251 17.625L11.2834 17.1167L8.97506 19.425L6.65839 17.0833L3.44172 17.6167L2.92506 14.375L0.0167236 12.8917L1.50006 9.975L0.025057 7.08333L2.95006 5.575L3.45839 2.39167L6.68339 2.91667L9.00006 0.579166L11.3001 2.88333L14.5417 2.375ZM15.7501 7.80833L13.5834 6.66667L13.1667 4.25833L10.7501 4.60833L9.00006 2.91667L7.25006 4.60833L4.83339 4.25833L4.41672 6.66667L2.25006 7.80833L3.33339 10L2.25006 12.1917L4.41672 13.3333L4.83339 15.7417L7.25006 15.3917L9.00006 17.0833L10.7501 15.3917L13.1667 15.7417L13.5834 13.3333L15.7501 12.1917L14.6667 10L15.7501 7.80833Z" fill="black" fill-opacity="0.2"/>
</svg>
