<svg width="20" height="16" viewBox="0 0 20 16" fill="none" xmlns="http://www.w3.org/2000/svg">
<path d="M10 0.5L0.833374 5.5L4.16671 7.31667V12.3167L10 15.5L15.8334 12.3167V7.31667L17.5 6.40833V12.1667H19.1667V5.5L10 0.5ZM15.6834 5.5L10 8.6L4.31671 5.5L10 2.4L15.6834 5.5ZM14.1667 11.3333L10 13.6L5.83337 11.3333V8.225L10 10.5L14.1667 8.225V11.3333Z" fill="#333333"/>
<path d="M10 0.5L0.833374 5.5L4.16671 7.31667V12.3167L10 15.5L15.8334 12.3167V7.31667L17.5 6.40833V12.1667H19.1667V5.5L10 0.5ZM15.6834 5.5L10 8.6L4.31671 5.5L10 2.4L15.6834 5.5ZM14.1667 11.3333L10 13.6L5.83337 11.3333V8.225L10 10.5L14.1667 8.225V11.3333Z" fill="black" fill-opacity="0.2"/>
<path d="M10 0.5L0.833374 5.5L4.16671 7.31667V12.3167L10 15.5L15.8334 12.3167V7.31667L17.5 6.40833V12.1667H19.1667V5.5L10 0.5ZM15.6834 5.5L10 8.6L4.31671 5.5L10 2.4L15.6834 5.5ZM14.1667 11.3333L10 13.6L5.83337 11.3333V8.225L10 10.5L14.1667 8.225V11.3333Z" fill="black" fill-opacity="0.2"/>
<path d="M10 0.5L0.833374 5.5L4.16671 7.31667V12.3167L10 15.5L15.8334 12.3167V7.31667L17.5 6.40833V12.1667H19.1667V5.5L10 0.5ZM15.6834 5.5L10 8.6L4.31671 5.5L10 2.4L15.6834 5.5ZM14.1667 11.3333L10 13.6L5.83337 11.3333V8.225L10 10.5L14.1667 8.225V11.3333Z" fill="black" fill-opacity="0.2"/>
<path d="M10 0.5L0.833374 5.5L4.16671 7.31667V12.3167L10 15.5L15.8334 12.3167V7.31667L17.5 6.40833V12.1667H19.1667V5.5L10 0.5ZM15.6834 5.5L10 8.6L4.31671 5.5L10 2.4L15.6834 5.5ZM14.1667 11.3333L10 13.6L5.83337 11.3333V8.225L10 10.5L14.1667 8.225V11.3333Z" fill="black" fill-opacity="0.2"/>
<path d="M10 0.5L0.833374 5.5L4.16671 7.31667V12.3167L10 15.5L15.8334 12.3167V7.31667L17.5 6.40833V12.1667H19.1667V5.5L10 0.5ZM15.6834 5.5L10 8.6L4.31671 5.5L10 2.4L15.6834 5.5ZM14.1667 11.3333L10 13.6L5.83337 11.3333V8.225L10 10.5L14.1667 8.225V11.3333Z" fill="black" fill-opacity="0.2"/>
<path d="M10 0.5L0.833374 5.5L4.16671 7.31667V12.3167L10 15.5L15.8334 12.3167V7.31667L17.5 6.40833V12.1667H19.1667V5.5L10 0.5ZM15.6834 5.5L10 8.6L4.31671 5.5L10 2.4L15.6834 5.5ZM14.1667 11.3333L10 13.6L5.83337 11.3333V8.225L10 10.5L14.1667 8.225V11.3333Z" fill="black" fill-opacity="0.2"/>
</svg>
