<svg width="18" height="16" viewBox="0 0 18 16" fill="none" xmlns="http://www.w3.org/2000/svg">
<path d="M0.666016 1.83333V5.83333C0.666016 6.58333 1.08268 7.16667 1.66602 7.16667H16.416C16.916 7.16667 17.416 6.58333 17.416 5.83333V1.83333C17.3327 1.08333 16.916 0.5 16.3327 0.5H1.66602C1.08268 0.5 0.666016 1.08333 0.666016 1.83333ZM7.33268 4.66667V3H6.49935V4.66667H7.33268ZM3.16602 4.66667H4.83268V3H3.16602V4.66667ZM15.666 5.5H2.33268V2.16667H15.666V5.5ZM0.666016 10.1667V14.1667C0.666016 14.9167 1.08268 15.5 1.66602 15.5H16.416C16.916 15.5 17.416 14.9167 17.416 14.1667V10.1667C17.416 9.41667 16.9994 8.83333 16.416 8.83333H1.66602C1.08268 8.83333 0.666016 9.41667 0.666016 10.1667ZM7.33268 13V11.3333H6.49935V13H7.33268ZM3.16602 13H4.83268V11.3333H3.16602V13ZM15.666 13.8333H2.33268V10.5H15.666V13.8333Z" fill="#5C5C5C"/>
<path d="M0.666016 1.83333V5.83333C0.666016 6.58333 1.08268 7.16667 1.66602 7.16667H16.416C16.916 7.16667 17.416 6.58333 17.416 5.83333V1.83333C17.3327 1.08333 16.916 0.5 16.3327 0.5H1.66602C1.08268 0.5 0.666016 1.08333 0.666016 1.83333ZM7.33268 4.66667V3H6.49935V4.66667H7.33268ZM3.16602 4.66667H4.83268V3H3.16602V4.66667ZM15.666 5.5H2.33268V2.16667H15.666V5.5ZM0.666016 10.1667V14.1667C0.666016 14.9167 1.08268 15.5 1.66602 15.5H16.416C16.916 15.5 17.416 14.9167 17.416 14.1667V10.1667C17.416 9.41667 16.9994 8.83333 16.416 8.83333H1.66602C1.08268 8.83333 0.666016 9.41667 0.666016 10.1667ZM7.33268 13V11.3333H6.49935V13H7.33268ZM3.16602 13H4.83268V11.3333H3.16602V13ZM15.666 13.8333H2.33268V10.5H15.666V13.8333Z" fill="black" fill-opacity="0.2"/>
<path d="M0.666016 1.83333V5.83333C0.666016 6.58333 1.08268 7.16667 1.66602 7.16667H16.416C16.916 7.16667 17.416 6.58333 17.416 5.83333V1.83333C17.3327 1.08333 16.916 0.5 16.3327 0.5H1.66602C1.08268 0.5 0.666016 1.08333 0.666016 1.83333ZM7.33268 4.66667V3H6.49935V4.66667H7.33268ZM3.16602 4.66667H4.83268V3H3.16602V4.66667ZM15.666 5.5H2.33268V2.16667H15.666V5.5ZM0.666016 10.1667V14.1667C0.666016 14.9167 1.08268 15.5 1.66602 15.5H16.416C16.916 15.5 17.416 14.9167 17.416 14.1667V10.1667C17.416 9.41667 16.9994 8.83333 16.416 8.83333H1.66602C1.08268 8.83333 0.666016 9.41667 0.666016 10.1667ZM7.33268 13V11.3333H6.49935V13H7.33268ZM3.16602 13H4.83268V11.3333H3.16602V13ZM15.666 13.8333H2.33268V10.5H15.666V13.8333Z" fill="black" fill-opacity="0.2"/>
<path d="M0.666016 1.83333V5.83333C0.666016 6.58333 1.08268 7.16667 1.66602 7.16667H16.416C16.916 7.16667 17.416 6.58333 17.416 5.83333V1.83333C17.3327 1.08333 16.916 0.5 16.3327 0.5H1.66602C1.08268 0.5 0.666016 1.08333 0.666016 1.83333ZM7.33268 4.66667V3H6.49935V4.66667H7.33268ZM3.16602 4.66667H4.83268V3H3.16602V4.66667ZM15.666 5.5H2.33268V2.16667H15.666V5.5ZM0.666016 10.1667V14.1667C0.666016 14.9167 1.08268 15.5 1.66602 15.5H16.416C16.916 15.5 17.416 14.9167 17.416 14.1667V10.1667C17.416 9.41667 16.9994 8.83333 16.416 8.83333H1.66602C1.08268 8.83333 0.666016 9.41667 0.666016 10.1667ZM7.33268 13V11.3333H6.49935V13H7.33268ZM3.16602 13H4.83268V11.3333H3.16602V13ZM15.666 13.8333H2.33268V10.5H15.666V13.8333Z" fill="black" fill-opacity="0.2"/>
<path d="M0.666016 1.83333V5.83333C0.666016 6.58333 1.08268 7.16667 1.66602 7.16667H16.416C16.916 7.16667 17.416 6.58333 17.416 5.83333V1.83333C17.3327 1.08333 16.916 0.5 16.3327 0.5H1.66602C1.08268 0.5 0.666016 1.08333 0.666016 1.83333ZM7.33268 4.66667V3H6.49935V4.66667H7.33268ZM3.16602 4.66667H4.83268V3H3.16602V4.66667ZM15.666 5.5H2.33268V2.16667H15.666V5.5ZM0.666016 10.1667V14.1667C0.666016 14.9167 1.08268 15.5 1.66602 15.5H16.416C16.916 15.5 17.416 14.9167 17.416 14.1667V10.1667C17.416 9.41667 16.9994 8.83333 16.416 8.83333H1.66602C1.08268 8.83333 0.666016 9.41667 0.666016 10.1667ZM7.33268 13V11.3333H6.49935V13H7.33268ZM3.16602 13H4.83268V11.3333H3.16602V13ZM15.666 13.8333H2.33268V10.5H15.666V13.8333Z" fill="black" fill-opacity="0.2"/>
</svg>
