<svg width="20" height="20" viewBox="0 0 20 20" fill="none" xmlns="http://www.w3.org/2000/svg">
<path d="M18 14V2H6V14H18ZM20 14C20 15.1 19.1 16 18 16H6C4.9 16 4 15.1 4 14V2C4 0.9 4.9 0 6 0H18C19.1 0 20 0.9 20 2V14ZM14 18V20H2C0.9 20 0 19.1 0 18V5H2V18H14ZM12.2 3C11.3 3 10.6 3.2 10.1 3.6C9.6 4 9.3 4.6 9.3 5.4H11.2C11.2 5.1 11.3 4.9 11.5 4.7C11.7 4.6 11.9 4.5 12.2 4.5C12.5 4.5 12.8 4.6 13 4.8C13.2 5 13.3 5.2 13.3 5.6C13.3 5.9 13.2 6.2 13.1 6.4C13 6.6 12.7 6.8 12.5 7C12 7.3 11.6 7.6 11.5 7.9C11.1 8.1 11 8.5 11 9H13C13 8.7 13 8.4 13.1 8.3C13.2 8.1 13.4 7.9 13.6 7.8C14 7.6 14.4 7.3 14.7 6.9C15 6.4 15.2 6 15.2 5.5C15.2 4.7 14.9 4.1 14.4 3.7C13.9 3.2 13.1 3 12.2 3ZM11 10V12H13V10H11Z" fill="#333333"/>
<path d="M18 14V2H6V14H18ZM20 14C20 15.1 19.1 16 18 16H6C4.9 16 4 15.1 4 14V2C4 0.9 4.9 0 6 0H18C19.1 0 20 0.9 20 2V14ZM14 18V20H2C0.9 20 0 19.1 0 18V5H2V18H14ZM12.2 3C11.3 3 10.6 3.2 10.1 3.6C9.6 4 9.3 4.6 9.3 5.4H11.2C11.2 5.1 11.3 4.9 11.5 4.7C11.7 4.6 11.9 4.5 12.2 4.5C12.5 4.5 12.8 4.6 13 4.8C13.2 5 13.3 5.2 13.3 5.6C13.3 5.9 13.2 6.2 13.1 6.4C13 6.6 12.7 6.8 12.5 7C12 7.3 11.6 7.6 11.5 7.9C11.1 8.1 11 8.5 11 9H13C13 8.7 13 8.4 13.1 8.3C13.2 8.1 13.4 7.9 13.6 7.8C14 7.6 14.4 7.3 14.7 6.9C15 6.4 15.2 6 15.2 5.5C15.2 4.7 14.9 4.1 14.4 3.7C13.9 3.2 13.1 3 12.2 3ZM11 10V12H13V10H11Z" fill="black" fill-opacity="0.2"/>
<path d="M18 14V2H6V14H18ZM20 14C20 15.1 19.1 16 18 16H6C4.9 16 4 15.1 4 14V2C4 0.9 4.9 0 6 0H18C19.1 0 20 0.9 20 2V14ZM14 18V20H2C0.9 20 0 19.1 0 18V5H2V18H14ZM12.2 3C11.3 3 10.6 3.2 10.1 3.6C9.6 4 9.3 4.6 9.3 5.4H11.2C11.2 5.1 11.3 4.9 11.5 4.7C11.7 4.6 11.9 4.5 12.2 4.5C12.5 4.5 12.8 4.6 13 4.8C13.2 5 13.3 5.2 13.3 5.6C13.3 5.9 13.2 6.2 13.1 6.4C13 6.6 12.7 6.8 12.5 7C12 7.3 11.6 7.6 11.5 7.9C11.1 8.1 11 8.5 11 9H13C13 8.7 13 8.4 13.1 8.3C13.2 8.1 13.4 7.9 13.6 7.8C14 7.6 14.4 7.3 14.7 6.9C15 6.4 15.2 6 15.2 5.5C15.2 4.7 14.9 4.1 14.4 3.7C13.9 3.2 13.1 3 12.2 3ZM11 10V12H13V10H11Z" fill="black" fill-opacity="0.2"/>
<path d="M18 14V2H6V14H18ZM20 14C20 15.1 19.1 16 18 16H6C4.9 16 4 15.1 4 14V2C4 0.9 4.9 0 6 0H18C19.1 0 20 0.9 20 2V14ZM14 18V20H2C0.9 20 0 19.1 0 18V5H2V18H14ZM12.2 3C11.3 3 10.6 3.2 10.1 3.6C9.6 4 9.3 4.6 9.3 5.4H11.2C11.2 5.1 11.3 4.9 11.5 4.7C11.7 4.6 11.9 4.5 12.2 4.5C12.5 4.5 12.8 4.6 13 4.8C13.2 5 13.3 5.2 13.3 5.6C13.3 5.9 13.2 6.2 13.1 6.4C13 6.6 12.7 6.8 12.5 7C12 7.3 11.6 7.6 11.5 7.9C11.1 8.1 11 8.5 11 9H13C13 8.7 13 8.4 13.1 8.3C13.2 8.1 13.4 7.9 13.6 7.8C14 7.6 14.4 7.3 14.7 6.9C15 6.4 15.2 6 15.2 5.5C15.2 4.7 14.9 4.1 14.4 3.7C13.9 3.2 13.1 3 12.2 3ZM11 10V12H13V10H11Z" fill="black" fill-opacity="0.2"/>
<path d="M18 14V2H6V14H18ZM20 14C20 15.1 19.1 16 18 16H6C4.9 16 4 15.1 4 14V2C4 0.9 4.9 0 6 0H18C19.1 0 20 0.9 20 2V14ZM14 18V20H2C0.9 20 0 19.1 0 18V5H2V18H14ZM12.2 3C11.3 3 10.6 3.2 10.1 3.6C9.6 4 9.3 4.6 9.3 5.4H11.2C11.2 5.1 11.3 4.9 11.5 4.7C11.7 4.6 11.9 4.5 12.2 4.5C12.5 4.5 12.8 4.6 13 4.8C13.2 5 13.3 5.2 13.3 5.6C13.3 5.9 13.2 6.2 13.1 6.4C13 6.6 12.7 6.8 12.5 7C12 7.3 11.6 7.6 11.5 7.9C11.1 8.1 11 8.5 11 9H13C13 8.7 13 8.4 13.1 8.3C13.2 8.1 13.4 7.9 13.6 7.8C14 7.6 14.4 7.3 14.7 6.9C15 6.4 15.2 6 15.2 5.5C15.2 4.7 14.9 4.1 14.4 3.7C13.9 3.2 13.1 3 12.2 3ZM11 10V12H13V10H11Z" fill="black" fill-opacity="0.2"/>
<path d="M18 14V2H6V14H18ZM20 14C20 15.1 19.1 16 18 16H6C4.9 16 4 15.1 4 14V2C4 0.9 4.9 0 6 0H18C19.1 0 20 0.9 20 2V14ZM14 18V20H2C0.9 20 0 19.1 0 18V5H2V18H14ZM12.2 3C11.3 3 10.6 3.2 10.1 3.6C9.6 4 9.3 4.6 9.3 5.4H11.2C11.2 5.1 11.3 4.9 11.5 4.7C11.7 4.6 11.9 4.5 12.2 4.5C12.5 4.5 12.8 4.6 13 4.8C13.2 5 13.3 5.2 13.3 5.6C13.3 5.9 13.2 6.2 13.1 6.4C13 6.6 12.7 6.8 12.5 7C12 7.3 11.6 7.6 11.5 7.9C11.1 8.1 11 8.5 11 9H13C13 8.7 13 8.4 13.1 8.3C13.2 8.1 13.4 7.9 13.6 7.8C14 7.6 14.4 7.3 14.7 6.9C15 6.4 15.2 6 15.2 5.5C15.2 4.7 14.9 4.1 14.4 3.7C13.9 3.2 13.1 3 12.2 3ZM11 10V12H13V10H11Z" fill="black" fill-opacity="0.2"/>
<path d="M18 14V2H6V14H18ZM20 14C20 15.1 19.1 16 18 16H6C4.9 16 4 15.1 4 14V2C4 0.9 4.9 0 6 0H18C19.1 0 20 0.9 20 2V14ZM14 18V20H2C0.9 20 0 19.1 0 18V5H2V18H14ZM12.2 3C11.3 3 10.6 3.2 10.1 3.6C9.6 4 9.3 4.6 9.3 5.4H11.2C11.2 5.1 11.3 4.9 11.5 4.7C11.7 4.6 11.9 4.5 12.2 4.5C12.5 4.5 12.8 4.6 13 4.8C13.2 5 13.3 5.2 13.3 5.6C13.3 5.9 13.2 6.2 13.1 6.4C13 6.6 12.7 6.8 12.5 7C12 7.3 11.6 7.6 11.5 7.9C11.1 8.1 11 8.5 11 9H13C13 8.7 13 8.4 13.1 8.3C13.2 8.1 13.4 7.9 13.6 7.8C14 7.6 14.4 7.3 14.7 6.9C15 6.4 15.2 6 15.2 5.5C15.2 4.7 14.9 4.1 14.4 3.7C13.9 3.2 13.1 3 12.2 3ZM11 10V12H13V10H11Z" fill="black" fill-opacity="0.2"/>
</svg>
