<svg width="18" height="18" viewBox="0 0 18 18" fill="none" xmlns="http://www.w3.org/2000/svg">
<path d="M14.1667 14C14.6087 14 15.0327 14.1756 15.3452 14.4881C15.6578 14.8007 15.8334 15.2246 15.8334 15.6667C15.8334 16.1087 15.6578 16.5326 15.3452 16.8452C15.0327 17.1577 14.6087 17.3333 14.1667 17.3333C13.2417 17.3333 12.5 16.5833 12.5 15.6667C12.5 14.7417 13.2417 14 14.1667 14ZM0.833374 0.666656H3.55837L4.34171 2.33332H16.6667C16.8877 2.33332 17.0997 2.42112 17.256 2.5774C17.4122 2.73368 17.5 2.94564 17.5 3.16666C17.5 3.30832 17.4584 3.44999 17.4 3.58332L14.4167 8.97499C14.1334 9.48332 13.5834 9.83332 12.9584 9.83332H6.75004L6.00004 11.1917L5.97504 11.2917C5.97504 11.3469 5.99699 11.3999 6.03606 11.439C6.07513 11.478 6.12812 11.5 6.18337 11.5H15.8334V13.1667H5.83337C4.90837 13.1667 4.16671 12.4167 4.16671 11.5C4.16671 11.2083 4.24171 10.9333 4.36671 10.7L5.50004 8.65832L2.50004 2.33332H0.833374V0.666656ZM5.83337 14C6.2754 14 6.69932 14.1756 7.01188 14.4881C7.32445 14.8007 7.50004 15.2246 7.50004 15.6667C7.50004 16.1087 7.32445 16.5326 7.01188 16.8452C6.69932 17.1577 6.2754 17.3333 5.83337 17.3333C4.90837 17.3333 4.16671 16.5833 4.16671 15.6667C4.16671 14.7417 4.90837 14 5.83337 14ZM13.3334 8.16666L15.65 3.99999H5.11671L7.08337 8.16666H13.3334Z" fill="#333333"/>
<path d="M14.1667 14C14.6087 14 15.0327 14.1756 15.3452 14.4881C15.6578 14.8007 15.8334 15.2246 15.8334 15.6667C15.8334 16.1087 15.6578 16.5326 15.3452 16.8452C15.0327 17.1577 14.6087 17.3333 14.1667 17.3333C13.2417 17.3333 12.5 16.5833 12.5 15.6667C12.5 14.7417 13.2417 14 14.1667 14ZM0.833374 0.666656H3.55837L4.34171 2.33332H16.6667C16.8877 2.33332 17.0997 2.42112 17.256 2.5774C17.4122 2.73368 17.5 2.94564 17.5 3.16666C17.5 3.30832 17.4584 3.44999 17.4 3.58332L14.4167 8.97499C14.1334 9.48332 13.5834 9.83332 12.9584 9.83332H6.75004L6.00004 11.1917L5.97504 11.2917C5.97504 11.3469 5.99699 11.3999 6.03606 11.439C6.07513 11.478 6.12812 11.5 6.18337 11.5H15.8334V13.1667H5.83337C4.90837 13.1667 4.16671 12.4167 4.16671 11.5C4.16671 11.2083 4.24171 10.9333 4.36671 10.7L5.50004 8.65832L2.50004 2.33332H0.833374V0.666656ZM5.83337 14C6.2754 14 6.69932 14.1756 7.01188 14.4881C7.32445 14.8007 7.50004 15.2246 7.50004 15.6667C7.50004 16.1087 7.32445 16.5326 7.01188 16.8452C6.69932 17.1577 6.2754 17.3333 5.83337 17.3333C4.90837 17.3333 4.16671 16.5833 4.16671 15.6667C4.16671 14.7417 4.90837 14 5.83337 14ZM13.3334 8.16666L15.65 3.99999H5.11671L7.08337 8.16666H13.3334Z" fill="black" fill-opacity="0.2"/>
<path d="M14.1667 14C14.6087 14 15.0327 14.1756 15.3452 14.4881C15.6578 14.8007 15.8334 15.2246 15.8334 15.6667C15.8334 16.1087 15.6578 16.5326 15.3452 16.8452C15.0327 17.1577 14.6087 17.3333 14.1667 17.3333C13.2417 17.3333 12.5 16.5833 12.5 15.6667C12.5 14.7417 13.2417 14 14.1667 14ZM0.833374 0.666656H3.55837L4.34171 2.33332H16.6667C16.8877 2.33332 17.0997 2.42112 17.256 2.5774C17.4122 2.73368 17.5 2.94564 17.5 3.16666C17.5 3.30832 17.4584 3.44999 17.4 3.58332L14.4167 8.97499C14.1334 9.48332 13.5834 9.83332 12.9584 9.83332H6.75004L6.00004 11.1917L5.97504 11.2917C5.97504 11.3469 5.99699 11.3999 6.03606 11.439C6.07513 11.478 6.12812 11.5 6.18337 11.5H15.8334V13.1667H5.83337C4.90837 13.1667 4.16671 12.4167 4.16671 11.5C4.16671 11.2083 4.24171 10.9333 4.36671 10.7L5.50004 8.65832L2.50004 2.33332H0.833374V0.666656ZM5.83337 14C6.2754 14 6.69932 14.1756 7.01188 14.4881C7.32445 14.8007 7.50004 15.2246 7.50004 15.6667C7.50004 16.1087 7.32445 16.5326 7.01188 16.8452C6.69932 17.1577 6.2754 17.3333 5.83337 17.3333C4.90837 17.3333 4.16671 16.5833 4.16671 15.6667C4.16671 14.7417 4.90837 14 5.83337 14ZM13.3334 8.16666L15.65 3.99999H5.11671L7.08337 8.16666H13.3334Z" fill="black" fill-opacity="0.2"/>
<path d="M14.1667 14C14.6087 14 15.0327 14.1756 15.3452 14.4881C15.6578 14.8007 15.8334 15.2246 15.8334 15.6667C15.8334 16.1087 15.6578 16.5326 15.3452 16.8452C15.0327 17.1577 14.6087 17.3333 14.1667 17.3333C13.2417 17.3333 12.5 16.5833 12.5 15.6667C12.5 14.7417 13.2417 14 14.1667 14ZM0.833374 0.666656H3.55837L4.34171 2.33332H16.6667C16.8877 2.33332 17.0997 2.42112 17.256 2.5774C17.4122 2.73368 17.5 2.94564 17.5 3.16666C17.5 3.30832 17.4584 3.44999 17.4 3.58332L14.4167 8.97499C14.1334 9.48332 13.5834 9.83332 12.9584 9.83332H6.75004L6.00004 11.1917L5.97504 11.2917C5.97504 11.3469 5.99699 11.3999 6.03606 11.439C6.07513 11.478 6.12812 11.5 6.18337 11.5H15.8334V13.1667H5.83337C4.90837 13.1667 4.16671 12.4167 4.16671 11.5C4.16671 11.2083 4.24171 10.9333 4.36671 10.7L5.50004 8.65832L2.50004 2.33332H0.833374V0.666656ZM5.83337 14C6.2754 14 6.69932 14.1756 7.01188 14.4881C7.32445 14.8007 7.50004 15.2246 7.50004 15.6667C7.50004 16.1087 7.32445 16.5326 7.01188 16.8452C6.69932 17.1577 6.2754 17.3333 5.83337 17.3333C4.90837 17.3333 4.16671 16.5833 4.16671 15.6667C4.16671 14.7417 4.90837 14 5.83337 14ZM13.3334 8.16666L15.65 3.99999H5.11671L7.08337 8.16666H13.3334Z" fill="black" fill-opacity="0.2"/>
<path d="M14.1667 14C14.6087 14 15.0327 14.1756 15.3452 14.4881C15.6578 14.8007 15.8334 15.2246 15.8334 15.6667C15.8334 16.1087 15.6578 16.5326 15.3452 16.8452C15.0327 17.1577 14.6087 17.3333 14.1667 17.3333C13.2417 17.3333 12.5 16.5833 12.5 15.6667C12.5 14.7417 13.2417 14 14.1667 14ZM0.833374 0.666656H3.55837L4.34171 2.33332H16.6667C16.8877 2.33332 17.0997 2.42112 17.256 2.5774C17.4122 2.73368 17.5 2.94564 17.5 3.16666C17.5 3.30832 17.4584 3.44999 17.4 3.58332L14.4167 8.97499C14.1334 9.48332 13.5834 9.83332 12.9584 9.83332H6.75004L6.00004 11.1917L5.97504 11.2917C5.97504 11.3469 5.99699 11.3999 6.03606 11.439C6.07513 11.478 6.12812 11.5 6.18337 11.5H15.8334V13.1667H5.83337C4.90837 13.1667 4.16671 12.4167 4.16671 11.5C4.16671 11.2083 4.24171 10.9333 4.36671 10.7L5.50004 8.65832L2.50004 2.33332H0.833374V0.666656ZM5.83337 14C6.2754 14 6.69932 14.1756 7.01188 14.4881C7.32445 14.8007 7.50004 15.2246 7.50004 15.6667C7.50004 16.1087 7.32445 16.5326 7.01188 16.8452C6.69932 17.1577 6.2754 17.3333 5.83337 17.3333C4.90837 17.3333 4.16671 16.5833 4.16671 15.6667C4.16671 14.7417 4.90837 14 5.83337 14ZM13.3334 8.16666L15.65 3.99999H5.11671L7.08337 8.16666H13.3334Z" fill="black" fill-opacity="0.2"/>
<path d="M14.1667 14C14.6087 14 15.0327 14.1756 15.3452 14.4881C15.6578 14.8007 15.8334 15.2246 15.8334 15.6667C15.8334 16.1087 15.6578 16.5326 15.3452 16.8452C15.0327 17.1577 14.6087 17.3333 14.1667 17.3333C13.2417 17.3333 12.5 16.5833 12.5 15.6667C12.5 14.7417 13.2417 14 14.1667 14ZM0.833374 0.666656H3.55837L4.34171 2.33332H16.6667C16.8877 2.33332 17.0997 2.42112 17.256 2.5774C17.4122 2.73368 17.5 2.94564 17.5 3.16666C17.5 3.30832 17.4584 3.44999 17.4 3.58332L14.4167 8.97499C14.1334 9.48332 13.5834 9.83332 12.9584 9.83332H6.75004L6.00004 11.1917L5.97504 11.2917C5.97504 11.3469 5.99699 11.3999 6.03606 11.439C6.07513 11.478 6.12812 11.5 6.18337 11.5H15.8334V13.1667H5.83337C4.90837 13.1667 4.16671 12.4167 4.16671 11.5C4.16671 11.2083 4.24171 10.9333 4.36671 10.7L5.50004 8.65832L2.50004 2.33332H0.833374V0.666656ZM5.83337 14C6.2754 14 6.69932 14.1756 7.01188 14.4881C7.32445 14.8007 7.50004 15.2246 7.50004 15.6667C7.50004 16.1087 7.32445 16.5326 7.01188 16.8452C6.69932 17.1577 6.2754 17.3333 5.83337 17.3333C4.90837 17.3333 4.16671 16.5833 4.16671 15.6667C4.16671 14.7417 4.90837 14 5.83337 14ZM13.3334 8.16666L15.65 3.99999H5.11671L7.08337 8.16666H13.3334Z" fill="black" fill-opacity="0.2"/>
<path d="M14.1667 14C14.6087 14 15.0327 14.1756 15.3452 14.4881C15.6578 14.8007 15.8334 15.2246 15.8334 15.6667C15.8334 16.1087 15.6578 16.5326 15.3452 16.8452C15.0327 17.1577 14.6087 17.3333 14.1667 17.3333C13.2417 17.3333 12.5 16.5833 12.5 15.6667C12.5 14.7417 13.2417 14 14.1667 14ZM0.833374 0.666656H3.55837L4.34171 2.33332H16.6667C16.8877 2.33332 17.0997 2.42112 17.256 2.5774C17.4122 2.73368 17.5 2.94564 17.5 3.16666C17.5 3.30832 17.4584 3.44999 17.4 3.58332L14.4167 8.97499C14.1334 9.48332 13.5834 9.83332 12.9584 9.83332H6.75004L6.00004 11.1917L5.97504 11.2917C5.97504 11.3469 5.99699 11.3999 6.03606 11.439C6.07513 11.478 6.12812 11.5 6.18337 11.5H15.8334V13.1667H5.83337C4.90837 13.1667 4.16671 12.4167 4.16671 11.5C4.16671 11.2083 4.24171 10.9333 4.36671 10.7L5.50004 8.65832L2.50004 2.33332H0.833374V0.666656ZM5.83337 14C6.2754 14 6.69932 14.1756 7.01188 14.4881C7.32445 14.8007 7.50004 15.2246 7.50004 15.6667C7.50004 16.1087 7.32445 16.5326 7.01188 16.8452C6.69932 17.1577 6.2754 17.3333 5.83337 17.3333C4.90837 17.3333 4.16671 16.5833 4.16671 15.6667C4.16671 14.7417 4.90837 14 5.83337 14ZM13.3334 8.16666L15.65 3.99999H5.11671L7.08337 8.16666H13.3334Z" fill="black" fill-opacity="0.2"/>
</svg>
