<svg width="15" height="14" viewBox="0 0 15 14" fill="none" xmlns="http://www.w3.org/2000/svg">
<path d="M12.0693 2.06573C10.8418 0.835266 9.20703 0.158508 7.46973 0.158508C3.88379 0.158508 0.96582 3.07648 0.96582 6.66241C0.96582 7.80792 1.26465 8.92706 1.83301 9.91437L0.910156 13.2835L4.3584 12.3782C5.30762 12.8968 6.37695 13.1693 7.4668 13.1693H7.46973C11.0527 13.1693 14.0352 10.2513 14.0352 6.66534C14.0352 4.92804 13.2969 3.2962 12.0693 2.06573ZM7.46973 12.0735C6.49707 12.0735 5.54492 11.8128 4.71582 11.3206L4.51953 11.2034L2.47461 11.7396L3.01953 9.74445L2.89062 9.53937C2.34863 8.67804 2.06445 7.68488 2.06445 6.66241C2.06445 3.68292 4.49023 1.25714 7.47266 1.25714C8.91699 1.25714 10.2734 1.81964 11.293 2.8421C12.3125 3.86456 12.9395 5.22101 12.9365 6.66534C12.9365 9.64777 10.4492 12.0735 7.46973 12.0735ZM10.4346 8.02472C10.2734 7.94269 9.47363 7.55011 9.32422 7.49738C9.1748 7.44171 9.06641 7.41534 8.95801 7.57941C8.84961 7.74347 8.53906 8.10675 8.44238 8.21808C8.34863 8.32648 8.25195 8.34113 8.09082 8.25909C7.13574 7.78156 6.50879 7.40656 5.87891 6.3255C5.71191 6.03839 6.0459 6.0589 6.35645 5.43781C6.40918 5.32941 6.38281 5.23566 6.3418 5.15363C6.30078 5.07159 5.97559 4.27179 5.84082 3.94659C5.70898 3.63019 5.57422 3.67413 5.47461 3.66827C5.38086 3.66241 5.27246 3.66241 5.16406 3.66241C5.05566 3.66241 4.87988 3.70343 4.73047 3.86456C4.58105 4.02863 4.16211 4.4212 4.16211 5.22101C4.16211 6.02081 4.74512 6.79425 4.82422 6.90265C4.90625 7.01105 5.96973 8.65167 7.60156 9.35773C8.63281 9.80304 9.03711 9.84113 9.55273 9.76495C9.86621 9.71808 10.5137 9.37238 10.6484 8.99152C10.7832 8.61066 10.7832 8.28546 10.7422 8.21808C10.7041 8.14484 10.5957 8.10382 10.4346 8.02472Z" fill="white"/>
</svg>
