<svg width="17" height="20" viewBox="0 0 17 20" fill="none" xmlns="http://www.w3.org/2000/svg">
<path d="M2.33325 0C1.22325 0 0.333252 0.9 0.333252 2V17C0.333252 18.11 1.22325 19 2.33325 19V20H4.33325V19H12.3333V20H14.3333V19C15.4433 19 16.3333 18.11 16.3333 17V2C16.3333 0.9 15.4433 0 14.3333 0H2.33325ZM2.33325 2H7.33325V17H2.33325V2ZM9.33325 2H14.3333V17H9.33325V2ZM4.33325 8V11H6.33325V8H4.33325ZM10.3333 8V11H12.3333V8H10.3333Z" fill="#333333"/>
<path d="M2.33325 0C1.22325 0 0.333252 0.9 0.333252 2V17C0.333252 18.11 1.22325 19 2.33325 19V20H4.33325V19H12.3333V20H14.3333V19C15.4433 19 16.3333 18.11 16.3333 17V2C16.3333 0.9 15.4433 0 14.3333 0H2.33325ZM2.33325 2H7.33325V17H2.33325V2ZM9.33325 2H14.3333V17H9.33325V2ZM4.33325 8V11H6.33325V8H4.33325ZM10.3333 8V11H12.3333V8H10.3333Z" fill="black" fill-opacity="0.2"/>
<path d="M2.33325 0C1.22325 0 0.333252 0.9 0.333252 2V17C0.333252 18.11 1.22325 19 2.33325 19V20H4.33325V19H12.3333V20H14.3333V19C15.4433 19 16.3333 18.11 16.3333 17V2C16.3333 0.9 15.4433 0 14.3333 0H2.33325ZM2.33325 2H7.33325V17H2.33325V2ZM9.33325 2H14.3333V17H9.33325V2ZM4.33325 8V11H6.33325V8H4.33325ZM10.3333 8V11H12.3333V8H10.3333Z" fill="black" fill-opacity="0.2"/>
<path d="M2.33325 0C1.22325 0 0.333252 0.9 0.333252 2V17C0.333252 18.11 1.22325 19 2.33325 19V20H4.33325V19H12.3333V20H14.3333V19C15.4433 19 16.3333 18.11 16.3333 17V2C16.3333 0.9 15.4433 0 14.3333 0H2.33325ZM2.33325 2H7.33325V17H2.33325V2ZM9.33325 2H14.3333V17H9.33325V2ZM4.33325 8V11H6.33325V8H4.33325ZM10.3333 8V11H12.3333V8H10.3333Z" fill="black" fill-opacity="0.2"/>
<path d="M2.33325 0C1.22325 0 0.333252 0.9 0.333252 2V17C0.333252 18.11 1.22325 19 2.33325 19V20H4.33325V19H12.3333V20H14.3333V19C15.4433 19 16.3333 18.11 16.3333 17V2C16.3333 0.9 15.4433 0 14.3333 0H2.33325ZM2.33325 2H7.33325V17H2.33325V2ZM9.33325 2H14.3333V17H9.33325V2ZM4.33325 8V11H6.33325V8H4.33325ZM10.3333 8V11H12.3333V8H10.3333Z" fill="black" fill-opacity="0.2"/>
<path d="M2.33325 0C1.22325 0 0.333252 0.9 0.333252 2V17C0.333252 18.11 1.22325 19 2.33325 19V20H4.33325V19H12.3333V20H14.3333V19C15.4433 19 16.3333 18.11 16.3333 17V2C16.3333 0.9 15.4433 0 14.3333 0H2.33325ZM2.33325 2H7.33325V17H2.33325V2ZM9.33325 2H14.3333V17H9.33325V2ZM4.33325 8V11H6.33325V8H4.33325ZM10.3333 8V11H12.3333V8H10.3333Z" fill="black" fill-opacity="0.2"/>
<path d="M2.33325 0C1.22325 0 0.333252 0.9 0.333252 2V17C0.333252 18.11 1.22325 19 2.33325 19V20H4.33325V19H12.3333V20H14.3333V19C15.4433 19 16.3333 18.11 16.3333 17V2C16.3333 0.9 15.4433 0 14.3333 0H2.33325ZM2.33325 2H7.33325V17H2.33325V2ZM9.33325 2H14.3333V17H9.33325V2ZM4.33325 8V11H6.33325V8H4.33325ZM10.3333 8V11H12.3333V8H10.3333Z" fill="black" fill-opacity="0.2"/>
</svg>
