<svg width="145" height="145" viewBox="0 0 145 145" fill="none" xmlns="http://www.w3.org/2000/svg">
<path d="M72.5 37.708V79.458" stroke="#FA2B2B" stroke-width="4" stroke-linecap="round"/>
<path d="M72.5001 107.292C76.3431 107.292 79.4584 104.176 79.4584 100.333C79.4584 96.4904 76.3431 93.375 72.5001 93.375C68.6571 93.375 65.5417 96.4904 65.5417 100.333C65.5417 104.176 68.6571 107.292 72.5001 107.292Z" fill="#FA2B2B"/>
<path d="M37.7084 12.2268C48.2818 6.10977 60.2848 2.89776 72.5001 2.91659C110.931 2.91659 142.083 34.069 142.083 72.4999C142.083 110.931 110.931 142.083 72.5001 142.083C34.0692 142.083 2.91675 110.931 2.91675 72.4999C2.91675 59.8288 6.30546 47.937 12.227 37.7083" stroke="#FA2B2B" stroke-width="4" stroke-linecap="round"/>
</svg>
