<svg width="18" height="13" viewBox="0 0 18 13" fill="none" xmlns="http://www.w3.org/2000/svg">
<path d="M4.875 12.5C3.735 12.5 2.7625 12.1075 1.9575 11.3225C1.1525 10.5325 0.75 9.57 0.75 8.435C0.75 7.46 1.0425 6.59 1.6275 5.825C2.2175 5.06 2.9875 4.5725 3.9375 4.3625C4.1525 3.4625 4.685 2.6075 5.535 1.7975C6.38 0.982497 7.285 0.574997 8.25 0.574997C8.665 0.574997 9.0175 0.722497 9.3075 1.0175C9.6025 1.3125 9.75 1.665 9.75 2.075V6.6125L10.95 5.45L12 6.5L9 9.5L6 6.5L7.05 5.45L8.25 6.6125V2.075C7.3 2.25 6.5625 2.71 6.0375 3.455C5.5125 4.2 5.25 4.965 5.25 5.75H4.875C4.15 5.75 3.5325 6.0075 3.0225 6.5225C2.5075 7.0325 2.25 7.65 2.25 8.375C2.25 9.1 2.5075 9.725 3.0225 10.25C3.5325 10.75 4.15 11 4.875 11H13.875C14.4 11 14.8425 10.8175 15.2025 10.4525C15.5675 10.0925 15.75 9.65 15.75 9.125C15.75 8.6 15.5675 8.1575 15.2025 7.7975C14.8425 7.4325 14.4 7.25 13.875 7.25H12.75V5.75C12.75 5.15 12.6125 4.59 12.3375 4.07C12.0625 3.555 11.7 3.115 11.25 2.75V1.01C12.175 1.445 12.9075 2.09 13.4475 2.945C13.9825 3.815 14.25 4.75 14.25 5.75C15.115 5.85 15.83 6.225 16.395 6.875C16.965 7.515 17.25 8.265 17.25 9.125C17.25 10.065 16.9225 10.8625 16.2675 11.5175C15.6125 12.1725 14.815 12.5 13.875 12.5" fill="white"/>
</svg>
