<svg width="18" height="19" viewBox="0 0 18 19" fill="none" xmlns="http://www.w3.org/2000/svg">
<path d="M14 0.5H2C1.46957 0.5 0.960859 0.710714 0.585786 1.08579C0.210714 1.46086 0 1.96957 0 2.5V16.5C0 17.0304 0.210714 17.5391 0.585786 17.9142C0.960859 18.2893 1.46957 18.5 2 18.5H16C17.1 18.5 18 17.6 18 16.5V4.5L14 0.5ZM16 16.5H2V2.5H13.17L16 5.33V16.5ZM9 9.5C7.34 9.5 6 10.84 6 12.5C6 14.16 7.34 15.5 9 15.5C10.66 15.5 12 14.16 12 12.5C12 10.84 10.66 9.5 9 9.5ZM3 3.5H12V7.5H3V3.5Z" fill="white"/>
</svg>
