<svg width="181" height="180" viewBox="0 0 181 180" fill="none" xmlns="http://www.w3.org/2000/svg">
<path d="M90.4998 0.416664C41.229 0.416664 0.916504 40.7292 0.916504 90C0.916504 139.271 41.229 179.583 90.4998 179.583C139.771 179.583 180.083 139.271 180.083 90C180.083 40.7292 139.771 0.416664 90.4998 0.416664ZM90.4998 161.667C50.9936 161.667 18.8332 129.506 18.8332 90C18.8332 50.4937 50.9936 18.3333 90.4998 18.3333C130.006 18.3333 162.167 50.4937 162.167 90C162.167 129.506 130.006 161.667 90.4998 161.667ZM131.619 50.4042L72.5832 109.44L49.3811 86.3271L36.7498 98.9583L72.5832 134.792L144.25 63.125L131.619 50.4042Z" fill="#0DCA37"/>
</svg>
